<svg width="33" height="33" viewBox="0 0 33 33" fill="none" xmlns="http://www.w3.org/2000/svg">
<g clip-path="url(#clip0_569_378)">
<path d="M24.75 11C24.75 8.81196 23.8808 6.71354 22.3336 5.16637C20.7865 3.61919 18.688 2.75 16.5 2.75C14.312 2.75 12.2135 3.61919 10.6664 5.16637C9.11919 6.71354 8.25 8.81196 8.25 11C8.25 20.625 4.125 23.375 4.125 23.375H28.875C28.875 23.375 24.75 20.625 24.75 11Z" stroke="white" stroke-linecap="round" stroke-linejoin="round"/>
<path d="M18.8786 28.875C18.6369 29.2917 18.2899 29.6376 17.8724 29.8781C17.4549 30.1186 16.9816 30.2451 16.4998 30.2451C16.0181 30.2451 15.5448 30.1186 15.1273 29.8781C14.7098 29.6376 14.3628 29.2917 14.1211 28.875" stroke="white" stroke-linecap="round" stroke-linejoin="round"/>
<circle cx="25.1406" cy="6" r="6" fill="#9E6AE1"/>
<path d="M25.6326 9V7.83H22.5276V6.912L25.4796 2.7H26.7846V6.831H27.6126V7.83H26.7846V9H25.6326ZM23.7606 6.831H25.7046V3.969L23.7606 6.831Z" fill="white"/>
</g>
<defs>
<clipPath id="clip0_569_378">
<rect width="33" height="33" fill="white"/>
</clipPath>
</defs>
</svg>
