<svg width="405" height="396" viewBox="0 0 405 396" fill="none" xmlns="http://www.w3.org/2000/svg">
<path d="M246.505 133.393C246.505 133.393 167.251 40.0604 92.979 107.327C24.461 169.382 83.757 368.213 180.289 382.629C276.821 397.045 345.44 369.05 386.958 286.387C422.723 215.179 402.789 139.828 339.749 141.699C287.083 143.262 269.521 155.138 246.505 133.393Z" fill="url(#paint0_linear_338_121)"/>
<path d="M296.243 323.599C296.243 323.599 286.771 299.924 305.464 297.777C316.304 296.531 306.484 280.144 313.277 275.971C320.07 271.798 330.038 277.175 333.758 268.91C337.478 260.645 344.193 253.749 356.465 258.232C368.737 262.716 373.455 250.235 382.267 260.175C391.079 270.114 378.846 281.468 363.685 283.513C348.524 285.557 356.6 300.256 341.702 300.711C326.804 301.164 334.009 320.352 321.821 321.028C309.633 321.702 311.864 335.457 296.243 323.599Z" fill="url(#paint1_linear_338_121)"/>
<path d="M315.056 310.134C315.052 310.112 315.051 310.091 315.051 310.067C315.053 309.934 315.396 296.646 329.827 290.304C339.677 285.976 341.804 283.335 344.748 279.68C346.049 278.066 347.522 276.236 349.891 274.011C357.526 266.842 370.826 267.272 371.388 267.293C371.598 267.301 371.762 267.479 371.753 267.691C371.745 267.903 371.569 268.069 371.359 268.06C371.225 268.055 357.809 267.624 350.408 274.574C348.078 276.761 346.622 278.569 345.337 280.165C342.439 283.763 340.15 286.604 330.13 291.007C316.163 297.144 315.812 309.949 315.81 310.078C315.807 310.289 315.634 310.459 315.425 310.456C315.239 310.454 315.085 310.315 315.056 310.134Z" fill="#B877F5"/>
<path d="M296.228 293.283C296.228 293.283 278.59 268.213 299.902 260.418C312.262 255.897 296.228 239.466 303.036 232.657C309.844 225.847 323.011 229.334 325.087 218.599C327.164 207.863 333.129 197.884 348.749 199.673C364.369 201.463 366.45 185.503 379.523 194.662C392.595 203.822 381.395 220.582 364.192 227.26C346.989 233.938 360.514 248.883 343.18 253.621C325.846 258.36 339.589 278.813 325.492 283.046C311.395 287.28 317.808 302.769 296.228 293.283Z" fill="url(#paint2_linear_338_121)"/>
<path d="M305.658 266.212C305.652 266.186 305.648 266.159 305.647 266.132C305.638 265.971 304.941 249.972 321.754 241.119C333.23 235.076 335.565 231.72 338.797 227.078C340.225 225.026 341.844 222.701 344.504 219.826C353.08 210.559 369.099 209.939 369.777 209.916C370.03 209.908 370.242 210.108 370.249 210.363C370.257 210.618 370.059 210.832 369.807 210.841C369.645 210.846 353.486 211.473 345.172 220.458C342.555 223.286 340.956 225.583 339.545 227.61C336.363 232.181 333.85 235.792 322.176 241.939C305.904 250.507 306.551 265.925 306.56 266.079C306.574 266.334 306.381 266.553 306.129 266.567C305.904 266.58 305.708 266.426 305.658 266.212Z" fill="#B877F5"/>
<path d="M138.801 255.447C138.801 255.447 114.261 267.29 110.755 247.117C108.722 235.419 91.95 247.164 87.07 240.055C82.19 232.946 87.252 221.762 78.226 218.261C69.199 214.76 61.43 207.913 65.392 194.284C69.354 180.655 55.781 176.345 65.766 166.119C75.752 155.891 88.619 168.442 91.784 184.784C94.95 201.126 110.042 191.386 111.499 207.546C112.956 223.706 132.877 214.62 134.392 227.82C135.907 241.021 150.379 237.696 138.801 255.447Z" fill="url(#paint3_linear_338_121)"/>
<path d="M123.791 242.933C123.768 242.936 123.744 242.938 123.72 242.937C123.578 242.933 109.438 242.31 102.957 226.483C98.5331 215.68 95.7621 213.315 91.9271 210.043C90.2331 208.597 88.3121 206.959 85.9891 204.339C78.4991 195.894 79.2051 181.424 79.2391 180.813C79.2511 180.584 79.4441 180.408 79.6701 180.423C79.8951 180.436 80.0681 180.631 80.0551 180.859C80.0471 181.006 79.3371 195.601 86.5981 203.787C88.8831 206.364 90.7811 207.983 92.4551 209.411C96.2311 212.633 99.2131 215.177 103.713 226.167C109.986 241.485 123.61 242.106 123.747 242.111C123.972 242.118 124.149 242.309 124.142 242.536C124.134 242.741 123.984 242.905 123.791 242.933Z" fill="#B877F5"/>
<path d="M151.019 244.382C151.019 244.382 124.765 251.536 124.928 231.056C125.023 219.178 106.425 227.659 102.899 219.774C99.3719 211.888 106.353 201.817 98.1019 196.721C89.8509 191.626 83.4359 183.47 89.7729 170.791C96.1099 158.113 83.5319 151.39 95.1839 143.16C106.836 134.93 117.243 149.628 117.431 166.279C117.619 182.931 134.205 176.115 132.745 192.275C131.285 208.434 152.503 203.145 151.63 216.405C150.757 229.663 165.584 229.044 151.019 244.382Z" fill="url(#paint4_linear_338_121)"/>
<path d="M137.585 221.486C137.562 221.486 137.538 221.485 137.514 221.48C137.374 221.455 123.466 218.802 119.28 202.203C116.423 190.872 114.013 188.133 110.678 184.342C109.205 182.666 107.534 180.768 105.603 177.841C99.3798 168.403 102.116 154.183 102.235 153.583C102.279 153.359 102.495 153.213 102.716 153.259C102.937 153.305 103.08 153.522 103.036 153.745C103.007 153.889 100.249 168.233 106.282 177.383C108.181 180.263 109.831 182.137 111.287 183.793C114.571 187.526 117.164 190.474 120.071 201.999C124.122 218.064 137.52 220.642 137.654 220.666C137.876 220.705 138.024 220.92 137.985 221.144C137.951 221.344 137.779 221.486 137.585 221.486Z" fill="#B877F5"/>
<path d="M158.425 317.196C158.425 317.196 165.611 290.677 145.357 290.755C133.611 290.801 142.076 272.031 134.293 268.432C126.51 264.832 116.521 271.849 111.516 263.484C106.512 255.119 98.4739 248.598 85.9089 254.952C73.3439 261.306 66.7489 248.559 58.5609 260.307C50.3729 272.055 64.8639 282.64 81.3299 282.9C97.7959 283.16 90.9859 299.904 106.972 298.495C122.958 297.088 117.639 318.52 130.755 317.694C143.872 316.868 143.195 331.859 158.425 317.196Z" fill="url(#paint5_linear_338_121)"/>
<path d="M141.064 300.688C141.062 300.665 141.059 300.641 141.053 300.618C141.019 300.478 137.482 286.62 120.826 283.495C109.457 281.361 106.594 279.111 102.633 275.997C100.883 274.62 98.8989 273.061 95.8829 271.307C86.1589 265.651 72.3089 269.353 71.7239 269.513C71.5059 269.572 71.3749 269.8 71.4359 270.02C71.4949 270.241 71.7189 270.37 71.9369 270.311C72.0769 270.272 86.0489 266.54 95.4749 272.023C98.4419 273.748 100.402 275.289 102.131 276.649C106.031 279.715 109.112 282.137 120.677 284.307C136.798 287.331 140.227 300.679 140.26 300.814C140.314 301.035 140.535 301.171 140.754 301.116C140.948 301.068 141.076 300.886 141.064 300.688Z" fill="#B877F5"/>
<path d="M96.1469 388.133L85.8599 381.866L96.1469 376.037L106.433 381.866L96.1469 388.133Z" fill="url(#paint6_linear_338_121)"/>
<path d="M96.147 388.132V399.771L106.433 393.952V381.866L96.147 388.132Z" fill="url(#paint7_linear_338_121)"/>
<path d="M96.1469 388.132V399.771L85.8599 393.952V381.866L96.1469 388.132Z" fill="url(#paint8_linear_338_121)"/>
<path d="M121.839 388.134L111.552 381.866L121.839 376.037L132.125 381.866L121.839 388.134Z" fill="url(#paint9_linear_338_121)"/>
<path d="M121.839 388.133V399.771L132.125 393.952V381.866L121.839 388.133Z" fill="url(#paint10_linear_338_121)"/>
<path d="M121.839 388.133V399.771L111.552 393.952V381.866L121.839 388.133Z" fill="url(#paint11_linear_338_121)"/>
<path d="M108.568 366.386L98.282 360.12L108.568 354.291L118.854 360.12L108.568 366.386Z" fill="url(#paint12_linear_338_121)"/>
<path d="M108.568 366.386V378.024L118.854 372.206V360.12L108.568 366.386Z" fill="url(#paint13_linear_338_121)"/>
<path d="M108.568 366.386V378.024L98.282 372.206V360.12L108.568 366.386Z" fill="url(#paint14_linear_338_121)"/>
<path d="M83.578 366.616L73.292 360.348L83.578 354.52L93.864 360.348L83.578 366.616Z" fill="url(#paint15_linear_338_121)"/>
<path d="M83.5779 366.616V378.253L93.8639 372.434V360.348L83.5779 366.616Z" fill="url(#paint16_linear_338_121)"/>
<path d="M83.578 366.616V378.253L73.292 372.434V360.348L83.578 366.616Z" fill="url(#paint17_linear_338_121)"/>
<path d="M70.4549 388.362L60.1689 382.094L70.4549 376.267L80.7409 382.094L70.4549 388.362Z" fill="url(#paint18_linear_338_121)"/>
<path d="M70.4548 388.362V400L80.7408 394.18V382.094L70.4548 388.362Z" fill="url(#paint19_linear_338_121)"/>
<path d="M70.4549 388.362V400L60.1689 394.18V382.094L70.4549 388.362Z" fill="url(#paint20_linear_338_121)"/>
<path d="M303.676 309.521H133.788C130.734 309.521 128.258 307.047 128.258 303.996V134.242C128.258 131.191 130.734 128.717 133.788 128.717H303.676C306.73 128.717 309.206 131.191 309.206 134.242V303.996C309.206 307.047 306.73 309.521 303.676 309.521Z" fill="url(#paint21_linear_338_121)"/>
<path d="M243.849 109.663H235.812V136.557H243.849V109.663Z" fill="url(#paint22_linear_338_121)"/>
<path d="M263.941 109.663H255.904V136.557H263.941V109.663Z" fill="url(#paint23_linear_338_121)"/>
<path d="M284.033 109.663H275.996V136.557H284.033V109.663Z" fill="url(#paint24_linear_338_121)"/>
<path d="M183.574 109.663H175.537V136.557H183.574V109.663Z" fill="url(#paint25_linear_338_121)"/>
<path d="M203.666 109.663H195.629V136.557H203.666V109.663Z" fill="url(#paint26_linear_338_121)"/>
<path d="M223.757 109.663H215.72V136.557H223.757V109.663Z" fill="url(#paint27_linear_338_121)"/>
<path d="M163.483 109.663H155.446V136.557H163.483V109.663Z" fill="url(#paint28_linear_338_121)"/>
<path d="M301.87 243.608V235.577H328.785V243.608H301.87Z" fill="url(#paint29_linear_338_121)"/>
<path d="M301.87 263.683V255.653H328.785V263.683H301.87Z" fill="url(#paint30_linear_338_121)"/>
<path d="M301.87 283.759V275.729H328.785V283.759H301.87Z" fill="url(#paint31_linear_338_121)"/>
<path d="M301.87 183.382V175.351H328.785V183.382H301.87Z" fill="url(#paint32_linear_338_121)"/>
<path d="M301.87 203.457V195.427H328.785V203.457H301.87Z" fill="url(#paint33_linear_338_121)"/>
<path d="M301.87 223.533V215.502H328.785V223.533H301.87Z" fill="url(#paint34_linear_338_121)"/>
<path d="M301.87 163.305V155.275H328.785V163.305H301.87Z" fill="url(#paint35_linear_338_121)"/>
<path d="M243.849 302.478H235.812V329.372H243.849V302.478Z" fill="url(#paint36_linear_338_121)"/>
<path d="M263.941 302.478H255.904V329.372H263.941V302.478Z" fill="url(#paint37_linear_338_121)"/>
<path d="M284.033 302.478H275.996V329.372H284.033V302.478Z" fill="url(#paint38_linear_338_121)"/>
<path d="M183.574 302.478H175.537V329.372H183.574V302.478Z" fill="url(#paint39_linear_338_121)"/>
<path d="M203.666 302.478H195.629V329.372H203.666V302.478Z" fill="url(#paint40_linear_338_121)"/>
<path d="M223.757 302.478H215.72V329.372H223.757V302.478Z" fill="url(#paint41_linear_338_121)"/>
<path d="M163.483 302.478H155.446V329.372H163.483V302.478Z" fill="url(#paint42_linear_338_121)"/>
<path d="M135.313 195.427V203.457H108.398V195.427H135.313Z" fill="url(#paint43_linear_338_121)"/>
<path d="M135.313 175.351V183.382H108.398V175.351H135.313Z" fill="url(#paint44_linear_338_121)"/>
<path d="M135.313 155.276V163.305H108.398V155.276H135.313Z" fill="url(#paint45_linear_338_121)"/>
<path d="M135.313 255.653V263.683H108.398V255.653H135.313Z" fill="url(#paint46_linear_338_121)"/>
<path d="M135.313 235.577V243.608H108.398V235.577H135.313Z" fill="url(#paint47_linear_338_121)"/>
<path d="M135.313 215.502V223.533H108.398V215.502H135.313Z" fill="url(#paint48_linear_338_121)"/>
<path d="M135.313 275.729V283.759H108.398V275.729H135.313Z" fill="url(#paint49_linear_338_121)"/>
<path d="M288.833 147.805H145.77V290.755H288.833V147.805Z" fill="url(#paint50_linear_338_121)"/>
<path d="M289.24 144.106H148.224C145.483 144.106 143.26 146.327 143.26 149.066V289.969C143.26 292.708 145.483 294.929 148.224 294.929H289.24C291.981 294.929 294.204 292.708 294.204 289.969V149.066C294.204 146.327 291.981 144.106 289.24 144.106ZM287.371 286.874C287.371 287.63 286.758 288.242 286.002 288.242H151.182C150.426 288.242 149.813 287.63 149.813 286.874V152.161C149.813 151.405 150.427 150.793 151.182 150.793H286.002C286.759 150.793 287.371 151.406 287.371 152.161V286.874Z" fill="url(#paint51_linear_338_121)"/>
<path d="M249.619 246.878C247.518 236.235 242.407 223.424 235.226 210.805C228.045 198.185 219.642 187.243 211.563 179.998C203.235 172.529 196.134 169.838 191.567 172.436C191.594 172.42 191.624 172.41 191.652 172.395C191.18 172.546 190.722 172.728 190.294 172.971C185.727 175.564 184.405 183.037 186.571 194.007C188.672 204.65 193.782 217.461 200.963 230.082C208.145 242.702 216.548 253.643 224.626 260.887C230.973 266.58 236.605 269.494 240.949 269.411C242.268 269.386 243.467 269.079 244.532 268.494C245.007 268.343 245.466 268.159 245.896 267.914C250.462 265.32 251.784 257.849 249.619 246.878ZM243.388 268.767C243.415 268.764 243.439 268.756 243.466 268.752C243.439 268.756 243.414 268.763 243.388 268.767ZM244.971 266.289C241.212 268.423 234.72 265.751 227.149 258.962C219.217 251.846 210.947 241.071 203.863 228.623C196.779 216.172 191.742 203.559 189.68 193.111C187.712 183.138 188.736 176.194 192.492 174.061C193.303 173.6 194.24 173.363 195.288 173.344C199.101 173.271 204.377 176.063 210.313 181.389C218.245 188.505 226.515 199.28 233.599 211.727C240.684 224.179 245.721 236.791 247.783 247.239C249.752 257.212 248.727 264.156 244.971 266.289Z" fill="url(#paint52_linear_338_121)"/>
<path d="M186.496 246.79C188.626 236.152 193.774 223.356 200.989 210.756C208.205 198.157 216.639 187.238 224.738 180.016C233.086 172.57 240.195 169.9 244.756 172.509C244.728 172.494 244.698 172.484 244.672 172.468C245.143 172.62 245.6 172.804 246.029 173.048C250.588 175.655 251.889 183.13 249.692 194.095C247.562 204.732 242.415 217.528 235.2 230.13C227.983 242.729 219.55 253.646 211.451 260.868C205.088 266.544 199.447 269.441 195.105 269.346C193.785 269.317 192.588 269.008 191.524 268.419C191.051 268.267 190.591 268.082 190.162 267.836C185.601 265.23 184.3 257.755 186.496 246.79ZM191.09 266.213C194.843 268.358 201.343 265.704 208.932 258.937C216.884 251.843 225.184 241.091 232.303 228.663C239.422 216.233 244.493 203.634 246.585 193.191C248.581 183.223 247.576 176.276 243.826 174.133C243.017 173.669 242.08 173.43 241.032 173.407C237.22 173.323 231.935 176.102 225.984 181.409C218.032 188.503 209.731 199.255 202.613 211.683C195.494 224.115 190.422 236.712 188.33 247.155C186.334 257.123 187.34 264.07 191.09 266.213Z" fill="url(#paint53_linear_338_121)"/>
<path d="M257.155 205.707C246.82 202.383 233.128 200.639 218.601 200.796C204.073 200.954 190.421 202.993 180.164 206.54C169.588 210.196 163.791 215.099 163.85 220.349C163.85 220.317 163.855 220.287 163.855 220.255C163.759 220.741 163.696 221.23 163.701 221.722C163.758 226.971 169.657 231.749 180.31 235.174C190.644 238.499 204.335 240.243 218.864 240.087C233.392 239.928 247.043 237.89 257.3 234.342C265.36 231.556 270.642 228.045 272.674 224.21C273.292 223.045 273.605 221.849 273.608 220.634C273.706 220.146 273.768 219.655 273.762 219.161C273.706 213.911 267.807 209.134 257.155 205.707ZM273.294 221.765C273.303 221.741 273.309 221.715 273.318 221.69C273.309 221.715 273.302 221.74 273.294 221.765ZM271.891 219.18C271.938 223.501 266.451 227.879 256.838 231.203C246.764 234.685 233.323 236.689 218.993 236.844C204.661 237 191.178 235.286 181.032 232.024C171.348 228.909 165.767 224.646 165.721 220.33C165.71 219.399 165.957 218.464 166.448 217.538C168.232 214.171 173.235 210.913 180.775 208.307C190.849 204.825 204.29 202.821 218.62 202.666C232.954 202.511 246.435 204.223 256.581 207.486C266.264 210.602 271.846 214.864 271.891 219.18Z" fill="url(#paint54_linear_338_121)"/>
<path d="M364.393 369.841H274.134C271.451 369.841 269.276 367.642 269.276 364.928V278.313C269.276 275.6 271.451 273.4 274.134 273.4H364.393C367.076 273.4 369.251 275.599 369.251 278.313V364.928C369.252 367.641 367.077 369.841 364.393 369.841Z" fill="url(#paint55_linear_338_121)"/>
<path d="M366.087 273.4H363.186C366.536 273.4 369.252 276.864 369.252 281.137V362.102C369.252 366.375 366.536 369.84 363.186 369.84H366.087C369.437 369.84 372.153 366.376 372.153 362.102V281.138C372.153 276.864 369.437 273.4 366.087 273.4Z" fill="#A5C0D6"/>
<path d="M283.051 346.127C283.051 344.455 283.331 343.151 283.891 342.213C284.462 341.266 285.437 340.793 286.819 340.793C288.201 340.793 289.172 341.266 289.732 342.213C290.303 343.151 290.588 344.455 290.588 346.127C290.588 347.818 290.303 349.141 289.732 350.098C289.172 351.045 288.201 351.518 286.819 351.518C285.437 351.518 284.462 351.045 283.891 350.098C283.331 349.141 283.051 347.818 283.051 346.127ZM288.964 346.127C288.964 345.344 288.911 344.682 288.805 344.141C288.708 343.6 288.505 343.16 288.196 342.822C287.887 342.474 287.428 342.3 286.819 342.3C286.21 342.3 285.751 342.474 285.442 342.822C285.133 343.16 284.925 343.6 284.819 344.141C284.722 344.682 284.674 345.344 284.674 346.127C284.674 346.938 284.722 347.62 284.819 348.17C284.916 348.721 285.119 349.166 285.428 349.504C285.747 349.842 286.21 350.011 286.819 350.011C287.428 350.011 287.887 349.842 288.196 349.504C288.515 349.166 288.723 348.721 288.819 348.17C288.916 347.62 288.964 346.938 288.964 346.127ZM292.119 342.489V340.981H295.133V351.547H293.466V342.489H292.119ZM297.186 342.489V340.981H300.2V351.547H298.534V342.489H297.186ZM302.47 346.127C302.47 344.455 302.751 343.151 303.311 342.213C303.881 341.266 304.857 340.793 306.239 340.793C307.621 340.793 308.592 341.266 309.152 342.213C309.722 343.151 310.007 344.455 310.007 346.127C310.007 347.818 309.722 349.141 309.152 350.098C308.592 351.045 307.621 351.518 306.239 351.518C304.857 351.518 303.881 351.045 303.311 350.098C302.751 349.141 302.47 347.818 302.47 346.127ZM308.384 346.127C308.384 345.344 308.331 344.682 308.224 344.141C308.128 343.6 307.925 343.16 307.616 342.822C307.306 342.474 306.848 342.3 306.239 342.3C305.63 342.3 305.171 342.474 304.862 342.822C304.553 343.16 304.345 343.6 304.239 344.141C304.142 344.682 304.094 345.344 304.094 346.127C304.094 346.938 304.142 347.62 304.239 348.17C304.335 348.721 304.538 349.166 304.847 349.504C305.166 349.842 305.63 350.011 306.239 350.011C306.848 350.011 307.306 349.842 307.616 349.504C307.935 349.166 308.142 348.721 308.239 348.17C308.336 347.62 308.384 346.938 308.384 346.127ZM311.756 346.127C311.756 344.455 312.036 343.151 312.596 342.213C313.166 341.266 314.142 340.793 315.524 340.793C316.906 340.793 317.877 341.266 318.437 342.213C319.007 343.151 319.292 344.455 319.292 346.127C319.292 347.818 319.007 349.141 318.437 350.098C317.877 351.045 316.906 351.518 315.524 351.518C314.142 351.518 313.166 351.045 312.596 350.098C312.036 349.141 311.756 347.818 311.756 346.127ZM317.669 346.127C317.669 345.344 317.616 344.682 317.51 344.141C317.413 343.6 317.21 343.16 316.901 342.822C316.592 342.474 316.133 342.3 315.524 342.3C314.915 342.3 314.456 342.474 314.147 342.822C313.838 343.16 313.63 343.6 313.524 344.141C313.427 344.682 313.379 345.344 313.379 346.127C313.379 346.938 313.427 347.62 313.524 348.17C313.62 348.721 313.823 349.166 314.133 349.504C314.451 349.842 314.915 350.011 315.524 350.011C316.133 350.011 316.592 349.842 316.901 349.504C317.22 349.166 317.427 348.721 317.524 348.17C317.621 347.62 317.669 346.938 317.669 346.127ZM320.823 342.489V340.981H323.838V351.547H322.171V342.489H320.823ZM325.89 342.489V340.981H328.905V351.547H327.238V342.489H325.89ZM330.958 342.489V340.981H333.972V351.547H332.306V342.489H330.958ZM336.025 342.489V340.981H339.04V351.547H337.373V342.489H336.025ZM341.309 346.127C341.309 344.455 341.59 343.151 342.15 342.213C342.72 341.266 343.696 340.793 345.078 340.793C346.46 340.793 347.431 341.266 347.991 342.213C348.561 343.151 348.846 344.455 348.846 346.127C348.846 347.818 348.561 349.141 347.991 350.098C347.431 351.045 346.46 351.518 345.078 351.518C343.696 351.518 342.72 351.045 342.15 350.098C341.59 349.141 341.309 347.818 341.309 346.127ZM347.223 346.127C347.223 345.344 347.17 344.682 347.064 344.141C346.967 343.6 346.764 343.16 346.455 342.822C346.146 342.474 345.687 342.3 345.078 342.3C344.469 342.3 344.01 342.474 343.701 342.822C343.392 343.16 343.184 343.6 343.078 344.141C342.981 344.682 342.933 345.344 342.933 346.127C342.933 346.938 342.981 347.62 343.078 348.17C343.174 348.721 343.377 349.166 343.686 349.504C344.005 349.842 344.469 350.011 345.078 350.011C345.687 350.011 346.146 349.842 346.455 349.504C346.774 349.166 346.981 348.721 347.078 348.17C347.175 347.62 347.223 346.938 347.223 346.127ZM350.377 342.489V340.981H353.392V351.547H351.725V342.489H350.377Z" fill="#004D8A"/>
<path d="M283.051 322.281C283.051 320.61 283.331 319.305 283.891 318.368C284.462 317.421 285.437 316.947 286.819 316.947C288.201 316.947 289.172 317.421 289.732 318.368C290.303 319.305 290.588 320.61 290.588 322.281C290.588 323.972 290.303 325.296 289.732 326.253C289.172 327.199 288.201 327.673 286.819 327.673C285.437 327.673 284.462 327.199 283.891 326.253C283.331 325.296 283.051 323.972 283.051 322.281ZM288.964 322.281C288.964 321.499 288.911 320.837 288.805 320.296C288.708 319.754 288.505 319.315 288.196 318.977C287.887 318.629 287.428 318.455 286.819 318.455C286.21 318.455 285.751 318.629 285.442 318.977C285.133 319.315 284.925 319.754 284.819 320.296C284.722 320.837 284.674 321.499 284.674 322.281C284.674 323.093 284.722 323.774 284.819 324.325C284.916 324.876 285.119 325.32 285.428 325.658C285.747 325.996 286.21 326.166 286.819 326.166C287.428 326.166 287.887 325.996 288.196 325.658C288.515 325.32 288.723 324.876 288.819 324.325C288.916 323.774 288.964 323.093 288.964 322.281ZM292.119 318.643V317.136H295.133V327.702H293.466V318.643H292.119ZM297.186 318.643V317.136H300.2V327.702H298.534V318.643H297.186ZM302.47 322.281C302.47 320.61 302.751 319.305 303.311 318.368C303.881 317.421 304.857 316.947 306.239 316.947C307.621 316.947 308.592 317.421 309.152 318.368C309.722 319.305 310.007 320.61 310.007 322.281C310.007 323.972 309.722 325.296 309.152 326.253C308.592 327.199 307.621 327.673 306.239 327.673C304.857 327.673 303.881 327.199 303.311 326.253C302.751 325.296 302.47 323.972 302.47 322.281ZM308.384 322.281C308.384 321.499 308.331 320.837 308.224 320.296C308.128 319.754 307.925 319.315 307.616 318.977C307.306 318.629 306.848 318.455 306.239 318.455C305.63 318.455 305.171 318.629 304.862 318.977C304.553 319.315 304.345 319.754 304.239 320.296C304.142 320.837 304.094 321.499 304.094 322.281C304.094 323.093 304.142 323.774 304.239 324.325C304.335 324.876 304.538 325.32 304.847 325.658C305.166 325.996 305.63 326.166 306.239 326.166C306.848 326.166 307.306 325.996 307.616 325.658C307.935 325.32 308.142 324.876 308.239 324.325C308.336 323.774 308.384 323.093 308.384 322.281ZM311.756 322.281C311.756 320.61 312.036 319.305 312.596 318.368C313.166 317.421 314.142 316.947 315.524 316.947C316.906 316.947 317.877 317.421 318.437 318.368C319.007 319.305 319.292 320.61 319.292 322.281C319.292 323.972 319.007 325.296 318.437 326.253C317.877 327.199 316.906 327.673 315.524 327.673C314.142 327.673 313.166 327.199 312.596 326.253C312.036 325.296 311.756 323.972 311.756 322.281ZM317.669 322.281C317.669 321.499 317.616 320.837 317.51 320.296C317.413 319.754 317.21 319.315 316.901 318.977C316.592 318.629 316.133 318.455 315.524 318.455C314.915 318.455 314.456 318.629 314.147 318.977C313.838 319.315 313.63 319.754 313.524 320.296C313.427 320.837 313.379 321.499 313.379 322.281C313.379 323.093 313.427 323.774 313.524 324.325C313.62 324.876 313.823 325.32 314.133 325.658C314.451 325.996 314.915 326.166 315.524 326.166C316.133 326.166 316.592 325.996 316.901 325.658C317.22 325.32 317.427 324.876 317.524 324.325C317.621 323.774 317.669 323.093 317.669 322.281ZM320.823 318.643V317.136H323.838V327.702H322.171V318.643H320.823ZM325.89 318.643V317.136H328.905V327.702H327.238V318.643H325.89ZM330.958 318.643V317.136H333.972V327.702H332.306V318.643H330.958ZM336.025 318.643V317.136H339.04V327.702H337.373V318.643H336.025ZM341.309 322.281C341.309 320.61 341.59 319.305 342.15 318.368C342.72 317.421 343.696 316.947 345.078 316.947C346.46 316.947 347.431 317.421 347.991 318.368C348.561 319.305 348.846 320.61 348.846 322.281C348.846 323.972 348.561 325.296 347.991 326.253C347.431 327.199 346.46 327.673 345.078 327.673C343.696 327.673 342.72 327.199 342.15 326.253C341.59 325.296 341.309 323.972 341.309 322.281ZM347.223 322.281C347.223 321.499 347.17 320.837 347.064 320.296C346.967 319.754 346.764 319.315 346.455 318.977C346.146 318.629 345.687 318.455 345.078 318.455C344.469 318.455 344.01 318.629 343.701 318.977C343.392 319.315 343.184 319.754 343.078 320.296C342.981 320.837 342.933 321.499 342.933 322.281C342.933 323.093 342.981 323.774 343.078 324.325C343.174 324.876 343.377 325.32 343.686 325.658C344.005 325.996 344.469 326.166 345.078 326.166C345.687 326.166 346.146 325.996 346.455 325.658C346.774 325.32 346.981 324.876 347.078 324.325C347.175 323.774 347.223 323.093 347.223 322.281ZM350.377 318.643V317.136H353.392V327.702H351.725V318.643H350.377Z" fill="#004D8A"/>
<path d="M283.051 298.351C283.051 296.679 283.331 295.375 283.891 294.437C284.462 293.49 285.437 293.017 286.819 293.017C288.201 293.017 289.172 293.49 289.732 294.437C290.303 295.375 290.588 296.679 290.588 298.351C290.588 300.042 290.303 301.365 289.732 302.322C289.172 303.269 288.201 303.742 286.819 303.742C285.437 303.742 284.462 303.269 283.891 302.322C283.331 301.365 283.051 300.042 283.051 298.351ZM288.964 298.351C288.964 297.568 288.911 296.906 288.805 296.365C288.708 295.824 288.505 295.384 288.196 295.046C287.887 294.698 287.428 294.524 286.819 294.524C286.21 294.524 285.751 294.698 285.442 295.046C285.133 295.384 284.925 295.824 284.819 296.365C284.722 296.906 284.674 297.568 284.674 298.351C284.674 299.162 284.722 299.844 284.819 300.394C284.916 300.945 285.119 301.39 285.428 301.728C285.747 302.066 286.21 302.235 286.819 302.235C287.428 302.235 287.887 302.066 288.196 301.728C288.515 301.39 288.723 300.945 288.819 300.394C288.916 299.844 288.964 299.162 288.964 298.351ZM292.119 294.713V293.205H295.133V303.771H293.466V294.713H292.119ZM297.186 294.713V293.205H300.2V303.771H298.534V294.713H297.186ZM302.47 298.351C302.47 296.679 302.751 295.375 303.311 294.437C303.881 293.49 304.857 293.017 306.239 293.017C307.621 293.017 308.592 293.49 309.152 294.437C309.722 295.375 310.007 296.679 310.007 298.351C310.007 300.042 309.722 301.365 309.152 302.322C308.592 303.269 307.621 303.742 306.239 303.742C304.857 303.742 303.881 303.269 303.311 302.322C302.751 301.365 302.47 300.042 302.47 298.351ZM308.384 298.351C308.384 297.568 308.331 296.906 308.224 296.365C308.128 295.824 307.925 295.384 307.616 295.046C307.306 294.698 306.848 294.524 306.239 294.524C305.63 294.524 305.171 294.698 304.862 295.046C304.553 295.384 304.345 295.824 304.239 296.365C304.142 296.906 304.094 297.568 304.094 298.351C304.094 299.162 304.142 299.844 304.239 300.394C304.335 300.945 304.538 301.39 304.847 301.728C305.166 302.066 305.63 302.235 306.239 302.235C306.848 302.235 307.306 302.066 307.616 301.728C307.935 301.39 308.142 300.945 308.239 300.394C308.336 299.844 308.384 299.162 308.384 298.351ZM311.756 298.351C311.756 296.679 312.036 295.375 312.596 294.437C313.166 293.49 314.142 293.017 315.524 293.017C316.906 293.017 317.877 293.49 318.437 294.437C319.007 295.375 319.292 296.679 319.292 298.351C319.292 300.042 319.007 301.365 318.437 302.322C317.877 303.269 316.906 303.742 315.524 303.742C314.142 303.742 313.166 303.269 312.596 302.322C312.036 301.365 311.756 300.042 311.756 298.351ZM317.669 298.351C317.669 297.568 317.616 296.906 317.51 296.365C317.413 295.824 317.21 295.384 316.901 295.046C316.592 294.698 316.133 294.524 315.524 294.524C314.915 294.524 314.456 294.698 314.147 295.046C313.838 295.384 313.63 295.824 313.524 296.365C313.427 296.906 313.379 297.568 313.379 298.351C313.379 299.162 313.427 299.844 313.524 300.394C313.62 300.945 313.823 301.39 314.133 301.728C314.451 302.066 314.915 302.235 315.524 302.235C316.133 302.235 316.592 302.066 316.901 301.728C317.22 301.39 317.427 300.945 317.524 300.394C317.621 299.844 317.669 299.162 317.669 298.351ZM320.823 294.713V293.205H323.838V303.771H322.171V294.713H320.823ZM325.89 294.713V293.205H328.905V303.771H327.238V294.713H325.89ZM330.958 294.713V293.205H333.972V303.771H332.306V294.713H330.958ZM336.025 294.713V293.205H339.04V303.771H337.373V294.713H336.025ZM341.309 298.351C341.309 296.679 341.59 295.375 342.15 294.437C342.72 293.49 343.696 293.017 345.078 293.017C346.46 293.017 347.431 293.49 347.991 294.437C348.561 295.375 348.846 296.679 348.846 298.351C348.846 300.042 348.561 301.365 347.991 302.322C347.431 303.269 346.46 303.742 345.078 303.742C343.696 303.742 342.72 303.269 342.15 302.322C341.59 301.365 341.309 300.042 341.309 298.351ZM347.223 298.351C347.223 297.568 347.17 296.906 347.064 296.365C346.967 295.824 346.764 295.384 346.455 295.046C346.146 294.698 345.687 294.524 345.078 294.524C344.469 294.524 344.01 294.698 343.701 295.046C343.392 295.384 343.184 295.824 343.078 296.365C342.981 296.906 342.933 297.568 342.933 298.351C342.933 299.162 342.981 299.844 343.078 300.394C343.174 300.945 343.377 301.39 343.686 301.728C344.005 302.066 344.469 302.235 345.078 302.235C345.687 302.235 346.146 302.066 346.455 301.728C346.774 301.39 346.981 300.945 347.078 300.394C347.175 299.844 347.223 299.162 347.223 298.351ZM350.377 294.713V293.205H353.392V303.771H351.725V294.713H350.377Z" fill="#004D8A"/>
<defs>
<linearGradient id="paint0_linear_338_121" x1="404.623" y1="234.602" x2="63.3768" y2="234.602" gradientUnits="userSpaceOnUse">
<stop offset="0.0017" stop-color="#EFF5FF"/>
<stop offset="1" stop-color="#EFF5FF"/>
</linearGradient>
<linearGradient id="paint1_linear_338_121" x1="367.415" y1="277.349" x2="275.46" y2="311.287" gradientUnits="userSpaceOnUse">
<stop stop-color="#CC66CC"/>
<stop offset="0.9926" stop-color="#004D8A"/>
</linearGradient>
<linearGradient id="paint2_linear_338_121" x1="341.692" y1="200.386" x2="328.604" y2="313.872" gradientUnits="userSpaceOnUse">
<stop stop-color="#CC66CC"/>
<stop offset="0.9926" stop-color="#004D8A"/>
</linearGradient>
<linearGradient id="paint3_linear_338_121" x1="62.0167" y1="210.661" x2="143.256" y2="210.661" gradientUnits="userSpaceOnUse">
<stop stop-color="#CC66CC"/>
<stop offset="0.9926" stop-color="#004D8A"/>
</linearGradient>
<linearGradient id="paint4_linear_338_121" x1="87.209" y1="193.198" x2="157.457" y2="193.198" gradientUnits="userSpaceOnUse">
<stop stop-color="#CC66CC"/>
<stop offset="0.9926" stop-color="#004D8A"/>
</linearGradient>
<linearGradient id="paint5_linear_338_121" x1="76.5758" y1="276.786" x2="179.063" y2="301.608" gradientUnits="userSpaceOnUse">
<stop stop-color="#CC66CC"/>
<stop offset="0.9926" stop-color="#004D8A"/>
</linearGradient>
<linearGradient id="paint6_linear_338_121" x1="89.3593" y1="382.085" x2="109.932" y2="382.085" gradientUnits="userSpaceOnUse">
<stop offset="0.2102" stop-color="#CCD9E5"/>
<stop offset="0.9979" stop-color="#AAD5E8"/>
</linearGradient>
<linearGradient id="paint7_linear_338_121" x1="96.7697" y1="389.121" x2="108.891" y2="393.572" gradientUnits="userSpaceOnUse">
<stop offset="0.2102" stop-color="#CCD9E5"/>
<stop offset="0.9979" stop-color="#AAD5E8"/>
</linearGradient>
<linearGradient id="paint8_linear_338_121" x1="86.0082" y1="383.31" x2="97.9933" y2="401.453" gradientUnits="userSpaceOnUse">
<stop offset="0.2102" stop-color="#CCD9E5"/>
<stop offset="0.9979" stop-color="#AAD5E8"/>
</linearGradient>
<linearGradient id="paint9_linear_338_121" x1="111.552" y1="382.085" x2="138.995" y2="382.085" gradientUnits="userSpaceOnUse">
<stop offset="0.2102" stop-color="#CCD9E5"/>
<stop offset="0.9979" stop-color="#AAD5E8"/>
</linearGradient>
<linearGradient id="paint10_linear_338_121" x1="122.368" y1="389.238" x2="135.465" y2="393.626" gradientUnits="userSpaceOnUse">
<stop offset="0.2102" stop-color="#CCD9E5"/>
<stop offset="0.9979" stop-color="#AAD5E8"/>
</linearGradient>
<linearGradient id="paint11_linear_338_121" x1="110.023" y1="385.151" x2="126.048" y2="398.988" gradientUnits="userSpaceOnUse">
<stop offset="0.2102" stop-color="#CCD9E5"/>
<stop offset="0.9979" stop-color="#AAD5E8"/>
</linearGradient>
<linearGradient id="paint12_linear_338_121" x1="101.73" y1="360.339" x2="122.302" y2="360.339" gradientUnits="userSpaceOnUse">
<stop offset="0.2102" stop-color="#CCD9E5"/>
<stop offset="0.9979" stop-color="#AAD5E8"/>
</linearGradient>
<linearGradient id="paint13_linear_338_121" x1="108.997" y1="367.633" x2="122.39" y2="371.631" gradientUnits="userSpaceOnUse">
<stop offset="0.2102" stop-color="#CCD9E5"/>
<stop offset="0.9979" stop-color="#AAD5E8"/>
</linearGradient>
<linearGradient id="paint14_linear_338_121" x1="96.0149" y1="362.101" x2="113.286" y2="378.5" gradientUnits="userSpaceOnUse">
<stop offset="0.2102" stop-color="#CCD9E5"/>
<stop offset="0.9979" stop-color="#AAD5E8"/>
</linearGradient>
<linearGradient id="paint15_linear_338_121" x1="77.6344" y1="361.311" x2="98.918" y2="358.707" gradientUnits="userSpaceOnUse">
<stop offset="0.2102" stop-color="#CCD9E5"/>
<stop offset="0.9979" stop-color="#AAD5E8"/>
</linearGradient>
<linearGradient id="paint16_linear_338_121" x1="84.272" y1="367.523" x2="97.0061" y2="372.499" gradientUnits="userSpaceOnUse">
<stop offset="0.2102" stop-color="#CCD9E5"/>
<stop offset="0.9979" stop-color="#AAD5E8"/>
</linearGradient>
<linearGradient id="paint17_linear_338_121" x1="73.1444" y1="363.516" x2="85.4204" y2="377.152" gradientUnits="userSpaceOnUse">
<stop offset="0.2102" stop-color="#CCD9E5"/>
<stop offset="0.9979" stop-color="#AAD5E8"/>
</linearGradient>
<linearGradient id="paint18_linear_338_121" x1="62.9021" y1="382.676" x2="90.3156" y2="381.391" gradientUnits="userSpaceOnUse">
<stop offset="0.2102" stop-color="#CCD9E5"/>
<stop offset="0.9979" stop-color="#AAD5E8"/>
</linearGradient>
<linearGradient id="paint19_linear_338_121" x1="71.0592" y1="389.372" x2="87.3449" y2="395.251" gradientUnits="userSpaceOnUse">
<stop offset="0.2102" stop-color="#CCD9E5"/>
<stop offset="0.9979" stop-color="#AAD5E8"/>
</linearGradient>
<linearGradient id="paint20_linear_338_121" x1="59.6099" y1="385.098" x2="75.6923" y2="402.126" gradientUnits="userSpaceOnUse">
<stop offset="0.2102" stop-color="#CCD9E5"/>
<stop offset="0.9979" stop-color="#AAD5E8"/>
</linearGradient>
<linearGradient id="paint21_linear_338_121" x1="128.257" y1="219.119" x2="309.206" y2="219.119" gradientUnits="userSpaceOnUse">
<stop stop-color="#004D8A"/>
<stop offset="0.7321" stop-color="#075F9B"/>
</linearGradient>
<linearGradient id="paint22_linear_338_121" x1="235.812" y1="123.11" x2="243.849" y2="123.11" gradientUnits="userSpaceOnUse">
<stop offset="0.001" stop-color="#00BBF2"/>
<stop offset="0.867" stop-color="#0B87D3"/>
</linearGradient>
<linearGradient id="paint23_linear_338_121" x1="255.904" y1="123.11" x2="263.941" y2="123.11" gradientUnits="userSpaceOnUse">
<stop offset="0.001" stop-color="#00BBF2"/>
<stop offset="0.867" stop-color="#0B87D3"/>
</linearGradient>
<linearGradient id="paint24_linear_338_121" x1="275.996" y1="123.11" x2="284.032" y2="123.11" gradientUnits="userSpaceOnUse">
<stop offset="0.001" stop-color="#00BBF2"/>
<stop offset="0.867" stop-color="#0B87D3"/>
</linearGradient>
<linearGradient id="paint25_linear_338_121" x1="175.538" y1="123.11" x2="183.574" y2="123.11" gradientUnits="userSpaceOnUse">
<stop offset="0.001" stop-color="#00BBF2"/>
<stop offset="0.867" stop-color="#0B87D3"/>
</linearGradient>
<linearGradient id="paint26_linear_338_121" x1="195.629" y1="123.11" x2="203.666" y2="123.11" gradientUnits="userSpaceOnUse">
<stop offset="0.001" stop-color="#00BBF2"/>
<stop offset="0.867" stop-color="#0B87D3"/>
</linearGradient>
<linearGradient id="paint27_linear_338_121" x1="215.721" y1="123.11" x2="223.758" y2="123.11" gradientUnits="userSpaceOnUse">
<stop offset="0.001" stop-color="#00BBF2"/>
<stop offset="0.867" stop-color="#0B87D3"/>
</linearGradient>
<linearGradient id="paint28_linear_338_121" x1="155.446" y1="123.11" x2="163.483" y2="123.11" gradientUnits="userSpaceOnUse">
<stop offset="0.001" stop-color="#00BBF2"/>
<stop offset="0.867" stop-color="#0B87D3"/>
</linearGradient>
<linearGradient id="paint29_linear_338_121" x1="301.87" y1="239.592" x2="328.785" y2="239.592" gradientUnits="userSpaceOnUse">
<stop offset="0.001" stop-color="#00BBF2"/>
<stop offset="0.867" stop-color="#0B87D3"/>
</linearGradient>
<linearGradient id="paint30_linear_338_121" x1="301.87" y1="259.668" x2="328.785" y2="259.668" gradientUnits="userSpaceOnUse">
<stop offset="0.001" stop-color="#00BBF2"/>
<stop offset="0.867" stop-color="#0B87D3"/>
</linearGradient>
<linearGradient id="paint31_linear_338_121" x1="301.87" y1="279.744" x2="328.785" y2="279.744" gradientUnits="userSpaceOnUse">
<stop offset="0.001" stop-color="#00BBF2"/>
<stop offset="0.867" stop-color="#0B87D3"/>
</linearGradient>
<linearGradient id="paint32_linear_338_121" x1="301.87" y1="179.366" x2="328.785" y2="179.366" gradientUnits="userSpaceOnUse">
<stop offset="0.001" stop-color="#00BBF2"/>
<stop offset="0.867" stop-color="#0B87D3"/>
</linearGradient>
<linearGradient id="paint33_linear_338_121" x1="301.87" y1="199.442" x2="328.785" y2="199.442" gradientUnits="userSpaceOnUse">
<stop offset="0.001" stop-color="#00BBF2"/>
<stop offset="0.867" stop-color="#0B87D3"/>
</linearGradient>
<linearGradient id="paint34_linear_338_121" x1="301.87" y1="219.517" x2="328.785" y2="219.517" gradientUnits="userSpaceOnUse">
<stop offset="0.001" stop-color="#00BBF2"/>
<stop offset="0.867" stop-color="#0B87D3"/>
</linearGradient>
<linearGradient id="paint35_linear_338_121" x1="301.87" y1="159.29" x2="328.785" y2="159.29" gradientUnits="userSpaceOnUse">
<stop offset="0.001" stop-color="#00BBF2"/>
<stop offset="0.867" stop-color="#0B87D3"/>
</linearGradient>
<linearGradient id="paint36_linear_338_121" x1="235.812" y1="315.925" x2="243.849" y2="315.925" gradientUnits="userSpaceOnUse">
<stop offset="0.001" stop-color="#00BBF2"/>
<stop offset="0.867" stop-color="#0B87D3"/>
</linearGradient>
<linearGradient id="paint37_linear_338_121" x1="255.904" y1="315.925" x2="263.941" y2="315.925" gradientUnits="userSpaceOnUse">
<stop offset="0.001" stop-color="#00BBF2"/>
<stop offset="0.867" stop-color="#0B87D3"/>
</linearGradient>
<linearGradient id="paint38_linear_338_121" x1="275.996" y1="315.925" x2="284.032" y2="315.925" gradientUnits="userSpaceOnUse">
<stop offset="0.001" stop-color="#00BBF2"/>
<stop offset="0.867" stop-color="#0B87D3"/>
</linearGradient>
<linearGradient id="paint39_linear_338_121" x1="175.538" y1="315.925" x2="183.574" y2="315.925" gradientUnits="userSpaceOnUse">
<stop offset="0.001" stop-color="#00BBF2"/>
<stop offset="0.867" stop-color="#0B87D3"/>
</linearGradient>
<linearGradient id="paint40_linear_338_121" x1="195.629" y1="315.925" x2="203.666" y2="315.925" gradientUnits="userSpaceOnUse">
<stop offset="0.001" stop-color="#00BBF2"/>
<stop offset="0.867" stop-color="#0B87D3"/>
</linearGradient>
<linearGradient id="paint41_linear_338_121" x1="215.721" y1="315.925" x2="223.758" y2="315.925" gradientUnits="userSpaceOnUse">
<stop offset="0.001" stop-color="#00BBF2"/>
<stop offset="0.867" stop-color="#0B87D3"/>
</linearGradient>
<linearGradient id="paint42_linear_338_121" x1="155.446" y1="315.925" x2="163.483" y2="315.925" gradientUnits="userSpaceOnUse">
<stop offset="0.001" stop-color="#00BBF2"/>
<stop offset="0.867" stop-color="#0B87D3"/>
</linearGradient>
<linearGradient id="paint43_linear_338_121" x1="108.398" y1="199.442" x2="135.314" y2="199.442" gradientUnits="userSpaceOnUse">
<stop offset="0.001" stop-color="#00BBF2"/>
<stop offset="0.867" stop-color="#0B87D3"/>
</linearGradient>
<linearGradient id="paint44_linear_338_121" x1="108.398" y1="179.366" x2="135.314" y2="179.366" gradientUnits="userSpaceOnUse">
<stop offset="0.001" stop-color="#00BBF2"/>
<stop offset="0.867" stop-color="#0B87D3"/>
</linearGradient>
<linearGradient id="paint45_linear_338_121" x1="108.398" y1="159.291" x2="135.314" y2="159.291" gradientUnits="userSpaceOnUse">
<stop offset="0.001" stop-color="#00BBF2"/>
<stop offset="0.867" stop-color="#0B87D3"/>
</linearGradient>
<linearGradient id="paint46_linear_338_121" x1="108.398" y1="259.668" x2="135.314" y2="259.668" gradientUnits="userSpaceOnUse">
<stop offset="0.001" stop-color="#00BBF2"/>
<stop offset="0.867" stop-color="#0B87D3"/>
</linearGradient>
<linearGradient id="paint47_linear_338_121" x1="108.398" y1="239.593" x2="135.314" y2="239.593" gradientUnits="userSpaceOnUse">
<stop offset="0.001" stop-color="#00BBF2"/>
<stop offset="0.867" stop-color="#0B87D3"/>
</linearGradient>
<linearGradient id="paint48_linear_338_121" x1="108.398" y1="219.517" x2="135.314" y2="219.517" gradientUnits="userSpaceOnUse">
<stop offset="0.001" stop-color="#00BBF2"/>
<stop offset="0.867" stop-color="#0B87D3"/>
</linearGradient>
<linearGradient id="paint49_linear_338_121" x1="108.398" y1="279.744" x2="135.314" y2="279.744" gradientUnits="userSpaceOnUse">
<stop offset="0.001" stop-color="#00BBF2"/>
<stop offset="0.867" stop-color="#0B87D3"/>
</linearGradient>
<linearGradient id="paint50_linear_338_121" x1="145.77" y1="219.28" x2="288.834" y2="219.28" gradientUnits="userSpaceOnUse">
<stop offset="0.001" stop-color="#00BBF2"/>
<stop offset="0.867" stop-color="#0B87D3"/>
</linearGradient>
<linearGradient id="paint51_linear_338_121" x1="143.26" y1="219.517" x2="294.204" y2="219.517" gradientUnits="userSpaceOnUse">
<stop stop-color="white"/>
<stop offset="1" stop-color="#BCC9CE"/>
</linearGradient>
<linearGradient id="paint52_linear_338_121" x1="185.555" y1="220.442" x2="250.635" y2="220.442" gradientUnits="userSpaceOnUse">
<stop stop-color="white"/>
<stop offset="1" stop-color="#BCC9CE"/>
</linearGradient>
<linearGradient id="paint53_linear_338_121" x1="185.454" y1="220.442" x2="250.733" y2="220.442" gradientUnits="userSpaceOnUse">
<stop stop-color="white"/>
<stop offset="1" stop-color="#BCC9CE"/>
</linearGradient>
<linearGradient id="paint54_linear_338_121" x1="163.701" y1="220.442" x2="273.763" y2="220.442" gradientUnits="userSpaceOnUse">
<stop stop-color="white"/>
<stop offset="1" stop-color="#BCC9CE"/>
</linearGradient>
<linearGradient id="paint55_linear_338_121" x1="281.581" y1="296.042" x2="370.395" y2="354.997" gradientUnits="userSpaceOnUse">
<stop stop-color="#FAFFFF"/>
<stop offset="1" stop-color="#CAEBEF"/>
</linearGradient>
</defs>
</svg>
