<svg width="9" height="9" viewBox="0 0 9 9" fill="none" xmlns="http://www.w3.org/2000/svg">
<path d="M5.97905 6.11135C5.82349 6.26969 5.56865 6.27082 5.41169 6.11386L4.69017 5.39234C4.42559 5.12776 4.27695 4.76891 4.27695 4.39474V3.37947C4.27695 3.1586 4.456 2.97955 4.67686 2.97955C4.89773 2.97955 5.07677 3.1586 5.07677 3.37947V4.16017C5.07677 4.47328 5.20116 4.77358 5.42257 4.99498L5.97657 5.54898C6.13158 5.70399 6.13269 5.95497 5.97905 6.11135ZM4.67686 2.17973C4.456 2.17973 4.27695 2.00068 4.27695 1.77982C4.27695 1.55895 4.456 1.3799 4.67686 1.3799C4.89773 1.3799 5.07677 1.55895 5.07677 1.77982C5.07677 2.00068 4.89773 2.17973 4.67686 2.17973ZM7.47625 4.97912C7.25538 4.97912 7.07634 4.80007 7.07634 4.57921C7.07634 4.35834 7.25538 4.17929 7.47625 4.17929C7.69712 4.17929 7.87616 4.35834 7.87616 4.57921C7.87616 4.80007 7.69712 4.97912 7.47625 4.97912ZM4.67686 7.77851C4.456 7.77851 4.27695 7.59946 4.27695 7.37859C4.27695 7.15773 4.456 6.97868 4.67686 6.97868C4.89773 6.97868 5.07677 7.15773 5.07677 7.37859C5.07677 7.59946 4.89773 7.77851 4.67686 7.77851ZM1.87747 4.97912C1.65661 4.97912 1.47756 4.80007 1.47756 4.57921C1.47756 4.35834 1.65661 4.17929 1.87747 4.17929C2.09834 4.17929 2.27739 4.35834 2.27739 4.57921C2.27739 4.80007 2.09834 4.97912 1.87747 4.97912ZM4.67686 8.57833C4.12365 8.57833 3.60376 8.47329 3.1172 8.2632C2.63064 8.05311 2.2074 7.76824 1.84748 7.40859C1.48756 7.04867 1.20269 6.62543 0.992866 6.13886C0.783045 5.6523 0.678001 5.13242 0.677734 4.57921C0.677734 4.02599 0.782778 3.50611 0.992866 3.01955C1.20295 2.53299 1.48782 2.10974 1.84748 1.74982C2.2074 1.3899 2.63064 1.10503 3.1172 0.895209C3.60376 0.685389 4.12365 0.580345 4.67686 0.580078C5.23007 0.580078 5.74996 0.685122 6.23652 0.895209C6.72308 1.1053 7.14632 1.39017 7.50624 1.74982C7.86617 2.10974 8.15117 2.53299 8.36126 3.01955C8.57134 3.50611 8.67626 4.02599 8.67599 4.57921C8.67599 5.13242 8.57094 5.6523 8.36086 6.13886C8.15077 6.62543 7.8659 7.04867 7.50624 7.40859C7.14632 7.76851 6.72308 8.05351 6.23652 8.2636C5.74996 8.47369 5.23007 8.5786 4.67686 8.57833ZM4.67686 7.77851C5.57 7.77851 6.3265 7.46857 6.94637 6.84871C7.56623 6.22885 7.87616 5.47234 7.87616 4.57921C7.87616 3.68607 7.56623 2.92957 6.94637 2.3097C6.3265 1.68984 5.57 1.3799 4.67686 1.3799C3.78372 1.3799 3.02722 1.68984 2.40736 2.3097C1.78749 2.92957 1.47756 3.68607 1.47756 4.57921C1.47756 5.47234 1.78749 6.22885 2.40736 6.84871C3.02722 7.46857 3.78372 7.77851 4.67686 7.77851Z" fill="white"/>
</svg>
