<svg width="417" height="246" viewBox="0 0 417 246" fill="none" xmlns="http://www.w3.org/2000/svg">
<path d="M387.435 26.1538C342.47 19.893 283.063 14.2261 255.139 63.173C239.677 90.2754 247.232 149.361 285.655 154.27C299.393 156.025 294.823 142.308 290.615 135.597C282.973 123.41 270.007 115.915 256.106 113.042C221.117 105.811 207.67 141.861 187.305 161.464C152.262 195.199 66.828 218.984 30.0847 218.345" stroke="#025183" stroke-width="5" stroke-linecap="round" stroke-dasharray="10 10"/>
<path d="M53.2718 199.246C44.3094 206.438 33.1173 213.402 24.7814 219.321C20.4478 222.399 19.813 221.18 23.0114 221.361C33.3866 221.949 48.7004 226.566 57.3962 232.174" stroke="#025183" stroke-width="5" stroke-linecap="round"/>
</svg>
