<svg width="40" height="40" viewBox="0 0 40 40" fill="none" xmlns="http://www.w3.org/2000/svg">
<path d="M19.9971 10.8242C18.1829 10.8242 16.4094 11.3622 14.9009 12.3701C13.3925 13.3781 12.2168 14.8107 11.5225 16.4868C10.8282 18.1629 10.6465 20.0073 11.0005 21.7867C11.3544 23.566 12.2281 25.2005 13.5109 26.4834C14.7938 27.7662 16.4282 28.6398 18.2076 28.9938C19.987 29.3477 21.8313 29.1661 23.5075 28.4718C25.1836 27.7775 26.6162 26.6018 27.6241 25.0933C28.6321 23.5849 29.17 21.8114 29.17 19.9971C29.1675 17.5651 28.2003 15.2334 26.4806 13.5137C24.7609 11.794 22.4292 10.8268 19.9971 10.8242ZM19.9971 26.1124C18.7876 26.1124 17.6053 25.7537 16.5997 25.0818C15.594 24.4098 14.8102 23.4548 14.3474 22.3373C13.8845 21.2199 13.7634 19.9904 13.9994 18.8041C14.2353 17.6179 14.8178 16.5282 15.673 15.673C16.5282 14.8178 17.6179 14.2353 18.8041 13.9994C19.9904 13.7634 21.2199 13.8845 22.3373 14.3474C23.4548 14.8102 24.4098 15.594 25.0818 16.5997C25.7537 17.6053 26.1124 18.7876 26.1124 19.9971C26.1124 21.619 25.4681 23.1744 24.3213 24.3213C23.1744 25.4681 21.619 26.1124 19.9971 26.1124ZM36.8141 20.4099C36.8218 20.1347 36.8218 19.8595 36.8141 19.5844L39.6654 16.0222C39.8149 15.8352 39.9184 15.6157 39.9675 15.3813C40.0166 15.147 40.01 14.9044 39.9482 14.673C39.4808 12.916 38.7816 11.2291 37.869 9.6566C37.7495 9.45081 37.5836 9.27576 37.3846 9.14538C37.1855 9.015 36.9588 8.93288 36.7224 8.90557L32.1894 8.40106C32.0009 8.20231 31.8098 8.01121 31.6161 7.82775L31.0811 3.28334C31.0535 3.04678 30.9711 2.81992 30.8404 2.62085C30.7097 2.42178 30.5343 2.256 30.3281 2.13673C28.755 1.22583 27.0682 0.527332 25.3117 0.0594483C25.0802 -0.00209244 24.8375 -0.00838679 24.6032 0.0410725C24.3688 0.0905318 24.1494 0.194361 23.9625 0.34419L20.4099 3.18015C20.1347 3.18015 19.8595 3.18015 19.5844 3.18015L16.0222 0.334636C15.8352 0.185133 15.6157 0.0816504 15.3813 0.0325243C15.147 -0.0166018 14.9044 -0.00999805 14.673 0.0518041C12.9163 0.520056 11.2295 1.21921 9.6566 2.131C9.45081 2.25048 9.27576 2.41636 9.14538 2.61542C9.015 2.81448 8.93288 3.04122 8.90557 3.27761L8.40106 7.81819C8.20231 8.00802 8.01121 8.19912 7.82775 8.3915L3.28334 8.91321C3.04678 8.94073 2.81992 9.02314 2.62085 9.15386C2.42178 9.28459 2.256 9.46001 2.13673 9.66615C1.22583 11.2392 0.527332 12.9261 0.0594483 14.6826C-0.00209244 14.9141 -0.00838679 15.1567 0.0410725 15.3911C0.0905318 15.6255 0.194361 15.8449 0.34419 16.0318L3.18015 19.5844C3.18015 19.8595 3.18015 20.1347 3.18015 20.4099L0.334636 23.9721C0.185133 24.1591 0.0816504 24.3786 0.0325243 24.613C-0.0166018 24.8473 -0.00999805 25.0899 0.0518041 25.3212C0.51922 27.0782 1.21842 28.7652 2.131 30.3377C2.25048 30.5435 2.41636 30.7185 2.61542 30.8489C2.81448 30.9793 3.04122 31.0614 3.27761 31.0887L7.81055 31.5932C8.00038 31.792 8.19148 31.9831 8.38386 32.1665L8.91321 36.7109C8.94073 36.9475 9.02314 37.1743 9.15386 37.3734C9.28459 37.5725 9.46001 37.7383 9.66615 37.8575C11.2392 38.7684 12.9261 39.4669 14.6826 39.9348C14.9141 39.9964 15.1567 40.0027 15.3911 39.9532C15.6255 39.9037 15.8449 39.7999 16.0318 39.6501L19.5844 36.8141C19.8595 36.8218 20.1347 36.8218 20.4099 36.8141L23.9721 39.6654C24.1591 39.8149 24.3786 39.9184 24.613 39.9675C24.8473 40.0166 25.0899 40.01 25.3212 39.9482C27.0782 39.4808 28.7652 38.7816 30.3377 37.869C30.5435 37.7495 30.7185 37.5836 30.8489 37.3846C30.9793 37.1855 31.0614 36.9588 31.0887 36.7224L31.5932 32.1894C31.792 32.0009 31.9831 31.8098 32.1665 31.6161L36.7109 31.0811C36.9475 31.0535 37.1743 30.9711 37.3734 30.8404C37.5725 30.7097 37.7383 30.5343 37.8575 30.3281C38.7684 28.755 39.4669 27.0682 39.9348 25.3117C39.9964 25.0802 40.0027 24.8375 39.9532 24.6032C39.9037 24.3688 39.7999 24.1494 39.6501 23.9625L36.8141 20.4099ZM33.7374 19.1678C33.7699 19.7202 33.7699 20.2741 33.7374 20.8265C33.7146 21.2047 33.8331 21.5779 34.0699 21.8738L36.7816 25.262C36.4705 26.2509 36.0721 27.2102 35.5911 28.1285L31.2722 28.6178C30.896 28.6595 30.5488 28.8393 30.2975 29.1223C29.9297 29.536 29.5379 29.9278 29.1242 30.2956C28.8412 30.5469 28.6614 30.8941 28.6197 31.2703L28.14 35.5853C27.2217 36.0665 26.2624 36.465 25.2735 36.7759L21.8833 34.0642C21.612 33.8474 21.275 33.7295 20.9278 33.7297H20.8361C20.2836 33.7622 19.7298 33.7622 19.1773 33.7297C18.7991 33.707 18.4259 33.8255 18.1301 34.0623L14.7323 36.7759C13.7434 36.4647 12.7841 36.0663 11.8657 35.5853L11.3765 31.2722C11.3348 30.896 11.155 30.5488 10.872 30.2975C10.4583 29.9297 10.0665 29.5379 9.69864 29.1242C9.4474 28.8412 9.10014 28.6614 8.72402 28.6197L4.40893 28.1381C3.92772 27.2198 3.52929 26.2605 3.21837 25.2716L5.93011 21.8814C6.16689 21.5856 6.28539 21.2124 6.26262 20.8342C6.23014 20.2817 6.23014 19.7278 6.26262 19.1754C6.28539 18.7972 6.16689 18.424 5.93011 18.1282L3.21837 14.7323C3.52953 13.7434 3.92795 12.7841 4.40893 11.8657L8.72211 11.3765C9.09823 11.3348 9.44549 11.155 9.69673 10.872C10.0646 10.4583 10.4564 10.0665 10.8701 9.69864C11.1542 9.44724 11.3347 9.09918 11.3765 8.72211L11.8562 4.40893C12.7744 3.92772 13.7337 3.52929 14.7227 3.21837L18.1129 5.93011C18.4087 6.16689 18.7819 6.28539 19.1601 6.26262C19.7126 6.23014 20.2664 6.23014 20.8189 6.26262C21.1971 6.28539 21.5703 6.16689 21.8661 5.93011L25.262 3.21837C26.2509 3.52953 27.2102 3.92795 28.1285 4.40893L28.6178 8.72211C28.6595 9.09823 28.8393 9.44549 29.1223 9.69673C29.536 10.0646 29.9278 10.4564 30.2956 10.8701C30.5469 11.1531 30.8941 11.3329 31.2703 11.3746L35.5853 11.8543C36.0665 12.7725 36.465 13.7318 36.7759 14.7208L34.0642 18.111C33.8251 18.4093 33.7065 18.7863 33.7316 19.1678H33.7374Z" fill="#EEEEEE"/>
</svg>
