<svg width="40" height="41" viewBox="0 0 40 41" fill="none" xmlns="http://www.w3.org/2000/svg">
<path d="M38.9229 16.3508L22.2562 0.876038C22.2481 0.869043 22.2404 0.861508 22.2333 0.853486C21.6197 0.304313 20.8201 0 19.9906 0C19.1612 0 18.3615 0.304313 17.7479 0.853486L17.725 0.876038L1.07708 16.3508C0.737495 16.6581 0.466425 17.0314 0.281024 17.4471C0.0956233 17.8628 -7.00893e-05 18.3119 3.85163e-08 18.7659V37.7197C3.85163e-08 38.5897 0.351189 39.4241 0.976311 40.0392C1.60143 40.6544 2.44928 41 3.33333 41H13.3333C14.2174 41 15.0652 40.6544 15.6904 40.0392C16.3155 39.4241 16.6667 38.5897 16.6667 37.7197V27.8789H23.3333V37.7197C23.3333 38.5897 23.6845 39.4241 24.3096 40.0392C24.9348 40.6544 25.7826 41 26.6667 41H36.6667C37.5507 41 38.3986 40.6544 39.0237 40.0392C39.6488 39.4241 40 38.5897 40 37.7197V18.7659C40.0001 18.3119 39.9044 17.8628 39.719 17.4471C39.5336 17.0314 39.2625 16.6581 38.9229 16.3508ZM36.6667 37.7197H26.6667V27.8789C26.6667 27.0089 26.3155 26.1746 25.6904 25.5594C25.0652 24.9442 24.2174 24.5986 23.3333 24.5986H16.6667C15.7826 24.5986 14.9348 24.9442 14.3096 25.5594C13.6845 26.1746 13.3333 27.0089 13.3333 27.8789V37.7197H3.33333V18.7659L3.35625 18.7454L20 3.27679L36.6458 18.7413L36.6687 18.7618L36.6667 37.7197Z" fill="#EEEEEE"/>
</svg>
