<svg width="101" height="108" viewBox="0 0 101 108" fill="none" xmlns="http://www.w3.org/2000/svg">
<path d="M6.29411e-05 57.452C-0.0134789 48.9148 2.15834 40.5162 6.30876 33.0557C10.4592 25.5952 16.4501 19.3212 23.7111 14.831C24.2363 14.496 24.8223 14.2679 25.4358 14.1597C26.0492 14.0515 26.678 14.0653 27.2861 14.2004C27.8942 14.3354 28.4697 14.589 28.9796 14.9468C29.4896 15.3045 29.924 15.7592 30.2581 16.285C30.598 16.8278 30.8264 17.4328 30.93 18.0648C31.0336 18.6968 31.0102 19.3432 30.8613 19.966C30.7123 20.5889 30.4408 21.1759 30.0625 21.6927C29.6842 22.2095 29.2068 22.6457 28.6581 22.976C22.6726 26.7349 17.7708 31.9897 14.4366 38.2218C11.1024 44.4538 9.45104 51.4476 9.64549 58.5128C9.83994 65.578 11.8735 72.4704 15.5454 78.5096C19.2174 84.5488 24.4008 89.5261 30.5839 92.9501C36.7671 96.3741 43.7363 98.1264 50.8036 98.0342C57.8709 97.9419 64.7919 96.0083 70.8836 92.4241C76.9753 88.8398 82.027 83.729 85.5401 77.596C89.0531 71.463 90.9061 64.5199 90.9161 57.452C90.9473 50.5567 89.2125 43.7682 85.8767 37.7334C82.541 31.6986 77.7155 26.6184 71.8601 22.977C70.7886 22.3133 70.0206 21.2555 69.7214 20.0312C69.4221 18.8069 69.6156 17.5141 70.2601 16.431C70.574 15.8847 70.9956 15.4078 71.4992 15.0292C72.0029 14.6507 72.5783 14.3784 73.1903 14.2288C73.8024 14.0792 74.4385 14.0554 75.06 14.1589C75.6815 14.2624 76.2755 14.4911 76.8061 14.831C84.2428 19.4545 90.3427 25.9407 94.5015 33.647C98.6603 41.3532 100.734 50.0123 100.517 58.7664C100.299 67.5206 97.7989 76.0661 93.2629 83.5566C88.7269 91.0471 82.3129 97.2227 74.6559 101.472C66.999 105.721 58.3649 107.896 49.6088 107.781C40.8527 107.667 32.2784 105.267 24.7352 100.819C17.1919 96.3711 10.9415 90.0299 6.60298 82.4234C2.26445 74.8168 -0.0116732 66.2088 6.29411e-05 57.452ZM45.3821 28.8V4.8C45.3821 3.52696 45.8878 2.30606 46.7879 1.40589C47.6881 0.505713 48.909 0 50.1821 0C51.4551 0 52.676 0.505713 53.5762 1.40589C54.4763 2.30606 54.9821 3.52696 54.9821 4.8V28.8C54.9821 30.073 54.4763 31.2939 53.5762 32.1941C52.676 33.0943 51.4551 33.6 50.1821 33.6C48.909 33.6 47.6881 33.0943 46.7879 32.1941C45.8878 31.2939 45.3821 30.073 45.3821 28.8Z" fill="white"/>
</svg>
