<svg width="37" height="47" viewBox="0 0 37 47" fill="none" xmlns="http://www.w3.org/2000/svg">
<path d="M27.9167 8.61056C25.3433 5.63855 22.447 2.96233 19.2813 0.631389C19.001 0.435078 18.6672 0.329773 18.325 0.329773C17.9828 0.329773 17.649 0.435078 17.3688 0.631389C14.2089 2.9633 11.3182 5.63948 8.75 8.61056C3.02292 15.1876 0 22.121 0 28.6626C0 33.5249 1.93154 38.1881 5.36971 41.6263C8.80788 45.0644 13.471 46.996 18.3333 46.996C23.1956 46.996 27.8588 45.0644 31.297 41.6263C34.7351 38.1881 36.6667 33.5249 36.6667 28.6626C36.6667 22.121 33.6438 15.1876 27.9167 8.61056ZM33.3333 28.6626C33.333 29.2196 33.301 29.776 33.2375 30.3293H20V26.996H33.2583C33.3083 27.5515 33.3333 28.1071 33.3333 28.6626ZM29.8729 16.996H20V13.6626H27.6854C28.4746 14.7332 29.2048 15.846 29.8729 16.996ZM20 40.3293H27.7479C25.5282 42.1274 22.8392 43.251 20 43.5668V40.3293ZM20 36.996V33.6626H32.4729C32.0581 34.8387 31.4982 35.9585 30.8062 36.996H20ZM20 23.6626V20.3293H31.5396C31.998 21.4115 32.3775 22.5256 32.675 23.6626H20ZM24.9771 10.3293H20V5.45431C21.763 6.96963 23.4256 8.59807 24.9771 10.3293ZM3.33333 28.6626C3.33333 18.246 12.1375 9.34805 16.6667 5.45431V43.5668C13.0018 43.1534 9.61723 41.4057 7.15821 38.657C4.6992 35.9083 3.33772 32.3508 3.33333 28.6626Z" fill="#EEEEEE"/>
</svg>
