<svg width="349" height="98" viewBox="0 0 349 98" fill="none" xmlns="http://www.w3.org/2000/svg">
<path d="M10.48 96H0.560001V0.255981H10.48V96Z" fill="#58A1E4"/>
<path d="M80.584 29.696H90.568V96H80.84V85.312C78.28 89.1093 75.08 92.096 71.24 94.272C67.4 96.448 63.048 97.536 58.184 97.536C52.2533 97.536 46.92 96.0213 42.184 92.992C37.448 89.92 33.736 85.7386 31.048 80.448C28.36 75.1573 27.016 69.312 27.016 62.912C27.016 56.512 28.36 50.688 31.048 45.44C33.736 40.1493 37.448 35.968 42.184 32.896C46.9627 29.824 52.296 28.288 58.184 28.288C63.048 28.288 67.3573 29.3333 71.112 31.424C74.8667 33.5146 78.024 36.3946 80.584 40.064V29.696ZM58.824 87.936C63.2187 87.936 67.1013 86.8693 70.472 84.736C73.8853 82.56 76.5307 79.5733 78.408 75.776C80.328 71.9787 81.288 67.712 81.288 62.976C81.288 58.24 80.328 53.9733 78.408 50.176C76.5307 46.336 73.8853 43.328 70.472 41.152C67.1013 38.976 63.24 37.888 58.888 37.888C54.5787 37.888 50.76 38.976 47.432 41.152C44.104 43.328 41.5227 46.336 39.688 50.176C37.8533 53.9733 36.936 58.24 36.936 62.976C36.936 67.7547 37.832 72.0426 39.624 75.84C41.4587 79.5947 44.0187 82.56 47.304 84.736C50.632 86.8693 54.472 87.936 58.824 87.936Z" fill="#58A1E4"/>
<path d="M123.461 96H113.413V38.912H102.149V29.696H113.349V13.248L123.461 11.136V29.696H140.229V38.912H123.461V96Z" fill="#58A1E4"/>
<path d="M155.497 66.496C156.009 70.8053 157.332 74.6027 159.465 77.888C161.598 81.1733 164.308 83.7333 167.593 85.568C170.921 87.4026 174.569 88.32 178.537 88.32C182.292 88.32 185.769 87.6587 188.969 86.336C192.212 84.9706 195.049 83.0933 197.481 80.704L202.729 88C199.486 91.072 195.774 93.4613 191.593 95.168C187.454 96.832 182.932 97.664 178.025 97.664C172.009 97.664 166.526 96.128 161.577 93.056C156.628 89.984 152.724 85.8027 149.865 80.512C147.049 75.2213 145.641 69.4186 145.641 63.104C145.641 56.704 146.964 50.8587 149.609 45.568C152.254 40.2346 155.902 36.032 160.553 32.96C165.204 29.8453 170.43 28.288 176.233 28.288C182.292 28.288 187.625 29.7813 192.233 32.768C196.841 35.712 200.382 39.808 202.857 45.056C205.374 50.304 206.633 56.2346 206.633 62.848C206.633 64.0853 206.548 65.3013 206.377 66.496H155.497ZM176.553 37.632C173.012 37.632 169.769 38.464 166.825 40.128C163.924 41.7493 161.492 44.0746 159.529 47.104C157.609 50.0906 156.329 53.5466 155.689 57.472H196.521C195.924 53.4613 194.708 49.9627 192.873 46.976C191.081 43.9893 188.777 41.6853 185.961 40.064C183.188 38.4426 180.052 37.632 176.553 37.632Z" fill="#58A1E4"/>
<path d="M253.137 97.728C246.78 97.728 240.956 96.192 235.665 93.12C230.417 90.0053 226.257 85.8027 223.185 80.512C220.156 75.1786 218.641 69.3547 218.641 63.04C218.641 56.6826 220.156 50.8587 223.185 45.568C226.257 40.2346 230.417 36.032 235.665 32.96C240.956 29.8453 246.758 28.288 253.073 28.288C257.894 28.288 262.353 29.1413 266.449 30.848C270.588 32.512 274.257 34.9013 277.457 38.016L272.209 45.12C266.662 40.0426 260.433 37.504 253.521 37.504C249.041 37.504 244.881 38.6346 241.041 40.896C237.201 43.1147 234.15 46.1866 231.889 50.112C229.628 53.9946 228.497 58.304 228.497 63.04C228.497 67.776 229.628 72.0853 231.889 75.968C234.15 79.808 237.201 82.8587 241.041 85.12C244.881 87.3387 249.041 88.448 253.521 88.448C260.476 88.448 266.748 85.9733 272.337 81.024L277.521 88.064C274.321 91.0507 270.63 93.4186 266.449 95.168C262.31 96.8746 257.873 97.728 253.137 97.728Z" fill="#58A1E4"/>
<path d="M322.81 28.224C328.271 28.224 332.943 29.3333 336.826 31.552C340.751 33.7706 343.759 36.992 345.85 41.216C347.941 45.44 348.986 50.5173 348.986 56.448V96H338.938V58.048C338.938 51.52 337.359 46.5066 334.202 43.008C331.087 39.5093 326.586 37.76 320.698 37.76C316.986 37.76 313.615 38.656 310.586 40.448C307.557 42.1973 305.146 44.6507 303.354 47.808C301.605 50.9653 300.73 54.5066 300.73 58.432V96H290.81V0.255981H300.73V38.08C303.162 35.0933 306.341 32.704 310.266 30.912C314.234 29.12 318.415 28.224 322.81 28.224Z" fill="#58A1E4"/>
</svg>
