<svg width="27" height="51" viewBox="0 0 27 51" fill="none" xmlns="http://www.w3.org/2000/svg">
<path d="M15 30.871V17.3293C15 16.8873 14.8244 16.4634 14.5118 16.1508C14.1993 15.8382 13.7754 15.6626 13.3333 15.6626C12.8913 15.6626 12.4674 15.8382 12.1548 16.1508C11.8423 16.4634 11.6667 16.8873 11.6667 17.3293V30.871C10.0956 31.2766 8.72635 32.2414 7.81566 33.5843C6.90498 34.9273 6.51535 36.5563 6.7198 38.166C6.92426 39.7757 7.70877 41.2555 8.92628 42.3282C10.1438 43.4008 11.7107 43.9926 13.3333 43.9926C14.956 43.9926 16.5229 43.4008 17.7404 42.3282C18.9579 41.2555 19.7424 39.7757 19.9469 38.166C20.1513 36.5563 19.7617 34.9273 18.851 33.5843C17.9403 32.2414 16.5711 31.2766 15 30.871ZM13.3333 40.6626C12.6741 40.6626 12.0296 40.4671 11.4814 40.1009C10.9333 39.7346 10.506 39.214 10.2537 38.6049C10.0014 37.9958 9.93543 37.3256 10.064 36.679C10.1927 36.0324 10.5101 35.4385 10.9763 34.9723C11.4425 34.5061 12.0364 34.1886 12.683 34.06C13.3296 33.9314 13.9999 33.9974 14.6089 34.2497C15.218 34.502 15.7386 34.9292 16.1049 35.4774C16.4712 36.0256 16.6667 36.67 16.6667 37.3293C16.6667 38.2134 16.3155 39.0612 15.6904 39.6863C15.0652 40.3115 14.2174 40.6626 13.3333 40.6626ZM21.6667 26.9126V8.99598C21.6667 6.78584 20.7887 4.66622 19.2259 3.10342C17.6631 1.54062 15.5435 0.662643 13.3333 0.662643C11.1232 0.662643 9.00358 1.54062 7.44078 3.10342C5.87797 4.66622 5 6.78584 5 8.99598V26.9126C2.84358 28.6392 1.27665 30.9928 0.515765 33.6484C-0.245124 36.304 -0.162407 39.1303 0.752485 41.7369C1.66738 44.3434 3.36927 46.6014 5.62297 48.1988C7.87667 49.7963 10.5709 50.6543 13.3333 50.6543C16.0958 50.6543 18.79 49.7963 21.0437 48.1988C23.2974 46.6014 24.9993 44.3434 25.9142 41.7369C26.8291 39.1303 26.9118 36.304 26.1509 33.6484C25.39 30.9928 23.8231 28.6392 21.6667 26.9126ZM13.3333 47.3293C11.2041 47.3295 9.13029 46.65 7.41399 45.3898C5.69769 44.1296 4.42845 42.3544 3.79106 40.3228C3.15367 38.2911 3.18141 36.109 3.87025 34.0943C4.55908 32.0795 5.87305 30.3372 7.62083 29.121C7.842 28.9666 8.02238 28.7608 8.14648 28.5213C8.27059 28.2818 8.33471 28.0157 8.33333 27.746V8.99598C8.33333 7.66989 8.86012 6.39812 9.7978 5.46044C10.7355 4.52276 12.0073 3.99598 13.3333 3.99598C14.6594 3.99598 15.9312 4.52276 16.8689 5.46044C17.8066 6.39812 18.3333 7.66989 18.3333 8.99598V27.746C18.3333 28.0143 18.3981 28.2787 18.5221 28.5166C18.6462 28.7546 18.8258 28.959 19.0458 29.1126C20.7973 30.3276 22.1147 32.0703 22.8058 34.0867C23.497 36.1031 23.5258 38.2876 22.888 40.3215C22.2502 42.3554 20.9792 44.1323 19.2604 45.3929C17.5416 46.6536 15.4649 47.332 13.3333 47.3293Z" fill="#EEEEEE"/>
</svg>
