<svg xmlns="http://www.w3.org/2000/svg" viewBox="0 0 653.57 433.66"><defs><style>.cls-1{fill:#dbdbdb;}.cls-2{fill:#c7c7c7;}.cls-3{fill:#a6a6a6;}.cls-4{fill:#263238;}.cls-5{fill:#37474f;}.cls-17,.cls-22,.cls-6{opacity:0.2;}.cls-7{fill:#455a64;}.cls-12,.cls-15,.cls-16,.cls-8{fill:#fff;}.cls-17,.cls-19,.cls-24,.cls-9{fill:#58a1e4;}.cls-10,.cls-11{fill:none;stroke:#263238;stroke-miterlimit:10;}.cls-10{stroke-width:0.75px;}.cls-11{stroke-width:1.5px;}.cls-12,.cls-23{opacity:0.5;}.cls-13{fill:#ffc4c0;}.cls-14,.cls-27{opacity:0.1;}.cls-15,.cls-18{opacity:0.7;}.cls-16,.cls-19,.cls-26{opacity:0.4;}.cls-20{fill:#ad6359;}.cls-21{fill:#ebebeb;}.cls-24{opacity:0.8;}.cls-25{opacity:0.6;}</style></defs><g id="Background_Complete" data-name="Background Complete"><path class="cls-1" d="M75.88,378.27A2.26,2.26,0,1,1,73.62,376,2.26,2.26,0,0,1,75.88,378.27Z" transform="translate(-48.21 -39.46)"/><path class="cls-1" d="M61.93,378.27A2.26,2.26,0,1,1,59.68,376,2.25,2.25,0,0,1,61.93,378.27Z" transform="translate(-48.21 -39.46)"/><path class="cls-1" d="M75.88,305.39a2.26,2.26,0,1,1-2.26-2.25A2.26,2.26,0,0,1,75.88,305.39Z" transform="translate(-48.21 -39.46)"/><path class="cls-1" d="M61.93,305.39a2.26,2.26,0,1,1-2.25-2.25A2.26,2.26,0,0,1,61.93,305.39Z" transform="translate(-48.21 -39.46)"/><path class="cls-1" d="M75.88,222.15a2.26,2.26,0,1,1-2.26-2.25A2.26,2.26,0,0,1,75.88,222.15Z" transform="translate(-48.21 -39.46)"/><path class="cls-1" d="M61.93,222.15a2.26,2.26,0,1,1-2.25-2.25A2.25,2.25,0,0,1,61.93,222.15Z" transform="translate(-48.21 -39.46)"/><path class="cls-1" d="M75.88,138.9a2.26,2.26,0,1,1-2.26-2.25A2.26,2.26,0,0,1,75.88,138.9Z" transform="translate(-48.21 -39.46)"/><path class="cls-1" d="M61.93,138.9a2.26,2.26,0,1,1-2.25-2.25A2.26,2.26,0,0,1,61.93,138.9Z" transform="translate(-48.21 -39.46)"/><path class="cls-1" d="M692.58,378.27a2.26,2.26,0,1,1-2.26-2.25A2.26,2.26,0,0,1,692.58,378.27Z" transform="translate(-48.21 -39.46)"/><path class="cls-1" d="M678.63,378.27a2.26,2.26,0,1,1-2.25-2.25A2.25,2.25,0,0,1,678.63,378.27Z" transform="translate(-48.21 -39.46)"/><path class="cls-1" d="M692.58,305.39a2.26,2.26,0,1,1-2.26-2.25A2.26,2.26,0,0,1,692.58,305.39Z" transform="translate(-48.21 -39.46)"/><path class="cls-1" d="M678.63,305.39a2.26,2.26,0,1,1-2.25-2.25A2.26,2.26,0,0,1,678.63,305.39Z" transform="translate(-48.21 -39.46)"/><path class="cls-1" d="M692.58,222.15a2.26,2.26,0,1,1-2.26-2.25A2.26,2.26,0,0,1,692.58,222.15Z" transform="translate(-48.21 -39.46)"/><path class="cls-1" d="M678.63,222.15a2.26,2.26,0,1,1-2.25-2.25A2.25,2.25,0,0,1,678.63,222.15Z" transform="translate(-48.21 -39.46)"/><path class="cls-1" d="M692.58,138.9a2.26,2.26,0,1,1-2.26-2.25A2.26,2.26,0,0,1,692.58,138.9Z" transform="translate(-48.21 -39.46)"/><path class="cls-1" d="M678.63,138.9a2.26,2.26,0,1,1-2.25-2.25A2.26,2.26,0,0,1,678.63,138.9Z" transform="translate(-48.21 -39.46)"/><path class="cls-1" d="M692.58,55.82a2.26,2.26,0,1,1-2.26-2.25A2.26,2.26,0,0,1,692.58,55.82Z" transform="translate(-48.21 -39.46)"/><path class="cls-1" d="M678.63,55.82a2.26,2.26,0,1,1-2.25-2.25A2.25,2.25,0,0,1,678.63,55.82Z" transform="translate(-48.21 -39.46)"/><path class="cls-1" d="M75.88,55.66a2.26,2.26,0,1,1-2.26-2.25A2.26,2.26,0,0,1,75.88,55.66Z" transform="translate(-48.21 -39.46)"/><path class="cls-1" d="M61.93,55.66a2.26,2.26,0,1,1-2.25-2.25A2.25,2.25,0,0,1,61.93,55.66Z" transform="translate(-48.21 -39.46)"/><path class="cls-1" d="M243.84,378.27a2.26,2.26,0,1,1-2.26-2.25A2.26,2.26,0,0,1,243.84,378.27Z" transform="translate(-48.21 -39.46)"/><path class="cls-1" d="M229.89,378.27a2.26,2.26,0,1,1-2.25-2.25A2.25,2.25,0,0,1,229.89,378.27Z" transform="translate(-48.21 -39.46)"/><path class="cls-1" d="M243.84,305.39a2.26,2.26,0,1,1-2.26-2.25A2.26,2.26,0,0,1,243.84,305.39Z" transform="translate(-48.21 -39.46)"/><path class="cls-1" d="M229.89,305.39a2.26,2.26,0,1,1-2.25-2.25A2.26,2.26,0,0,1,229.89,305.39Z" transform="translate(-48.21 -39.46)"/><path class="cls-1" d="M243.84,222.15a2.26,2.26,0,1,1-2.26-2.25A2.26,2.26,0,0,1,243.84,222.15Z" transform="translate(-48.21 -39.46)"/><path class="cls-1" d="M229.89,222.15a2.26,2.26,0,1,1-2.25-2.25A2.25,2.25,0,0,1,229.89,222.15Z" transform="translate(-48.21 -39.46)"/><path class="cls-1" d="M243.84,138.9a2.26,2.26,0,1,1-2.26-2.25A2.26,2.26,0,0,1,243.84,138.9Z" transform="translate(-48.21 -39.46)"/><path class="cls-1" d="M229.89,138.9a2.26,2.26,0,1,1-2.25-2.25A2.26,2.26,0,0,1,229.89,138.9Z" transform="translate(-48.21 -39.46)"/><path class="cls-1" d="M243.84,55.66a2.26,2.26,0,1,1-2.26-2.25A2.26,2.26,0,0,1,243.84,55.66Z" transform="translate(-48.21 -39.46)"/><path class="cls-1" d="M229.89,55.66a2.26,2.26,0,1,1-2.25-2.25A2.25,2.25,0,0,1,229.89,55.66Z" transform="translate(-48.21 -39.46)"/><path class="cls-1" d="M229.89,41.71a2.26,2.26,0,1,1-2.25-2.25A2.25,2.25,0,0,1,229.89,41.71Z" transform="translate(-48.21 -39.46)"/><path class="cls-1" d="M524.87,378.27a2.25,2.25,0,1,1-2.25-2.25A2.25,2.25,0,0,1,524.87,378.27Z" transform="translate(-48.21 -39.46)"/><path class="cls-1" d="M510.93,378.27a2.26,2.26,0,1,1-2.26-2.25A2.26,2.26,0,0,1,510.93,378.27Z" transform="translate(-48.21 -39.46)"/><path class="cls-1" d="M524.87,305.39a2.25,2.25,0,1,1-2.25-2.25A2.26,2.26,0,0,1,524.87,305.39Z" transform="translate(-48.21 -39.46)"/><path class="cls-1" d="M510.93,305.39a2.26,2.26,0,1,1-2.26-2.25A2.26,2.26,0,0,1,510.93,305.39Z" transform="translate(-48.21 -39.46)"/><path class="cls-1" d="M524.87,222.15a2.25,2.25,0,1,1-2.25-2.25A2.25,2.25,0,0,1,524.87,222.15Z" transform="translate(-48.21 -39.46)"/><path class="cls-1" d="M510.93,222.15a2.26,2.26,0,1,1-2.26-2.25A2.26,2.26,0,0,1,510.93,222.15Z" transform="translate(-48.21 -39.46)"/><path class="cls-1" d="M524.87,138.9a2.25,2.25,0,1,1-2.25-2.25A2.26,2.26,0,0,1,524.87,138.9Z" transform="translate(-48.21 -39.46)"/><path class="cls-1" d="M510.93,138.9a2.26,2.26,0,1,1-2.26-2.25A2.26,2.26,0,0,1,510.93,138.9Z" transform="translate(-48.21 -39.46)"/><path class="cls-1" d="M524.87,55.66a2.25,2.25,0,1,1-2.25-2.25A2.25,2.25,0,0,1,524.87,55.66Z" transform="translate(-48.21 -39.46)"/><path class="cls-1" d="M510.93,55.66a2.26,2.26,0,1,1-2.26-2.25A2.26,2.26,0,0,1,510.93,55.66Z" transform="translate(-48.21 -39.46)"/><path class="cls-1" d="M510.93,41.71a2.26,2.26,0,1,1-2.26-2.25A2.25,2.25,0,0,1,510.93,41.71Z" transform="translate(-48.21 -39.46)"/><path class="cls-1" d="M522.62,39.46a2.25,2.25,0,1,1-2.25,2.25A2.25,2.25,0,0,1,522.62,39.46Z" transform="translate(-48.21 -39.46)"/><path class="cls-1" d="M676.38,39.46a2.25,2.25,0,1,1-2.26,2.25A2.25,2.25,0,0,1,676.38,39.46Z" transform="translate(-48.21 -39.46)"/><path class="cls-1" d="M241.58,39.46a2.25,2.25,0,1,1-2.25,2.25A2.26,2.26,0,0,1,241.58,39.46Z" transform="translate(-48.21 -39.46)"/><path class="cls-1" d="M73.62,39.46a2.25,2.25,0,1,1-2.25,2.25A2.26,2.26,0,0,1,73.62,39.46Z" transform="translate(-48.21 -39.46)"/><path class="cls-1" d="M66.65,434.19c-.06-.07-.1-385.46-.15-385.53s616.81,0,616.82,0c.45-.15-.16,385.4,0,385.54l-.15-385.4c.86.4-616.67,0-616.52.14.29-.82,0,385.42,0,385.26Z" transform="translate(-48.21 -39.46)"/><path class="cls-1" d="M234.61,48.79c.25,96.06.25,289.36,0,385.4-.24-96.06-.24-289.36,0-385.4Z" transform="translate(-48.21 -39.46)"/><path class="cls-1" d="M515.39,48.79c.24,96.06.24,289.36,0,385.4-.25-96.06-.25-289.36,0-385.4Z" transform="translate(-48.21 -39.46)"/><rect class="cls-2" y="0.6" width="653.57" height="9"/><rect class="cls-3" y="6.47" width="653.57" height="3.14"/></g><g id="Floor"><path class="cls-4" d="M48.21,434.19c209.36-.61,444.22-.62,653.58,0-209.36.62-444.22.61-653.58,0Z" transform="translate(-48.21 -39.46)"/><path class="cls-4" d="M48.21,472.66c209.36-.61,444.22-.61,653.58,0-209.36.62-444.22.62-653.58,0Z" transform="translate(-48.21 -39.46)"/></g><g id="Milk_container" data-name="Milk container"><polygon class="cls-5" points="637.58 371.19 637.58 394.73 630.93 394.73 612.86 371.19 637.58 371.19"/><polygon class="cls-6" points="637.58 371.19 637.58 376.17 615.23 373.23 612.86 371.19 637.58 371.19"/><polygon class="cls-5" points="498.42 371.19 498.42 394.73 505.07 394.73 523.14 371.19 498.42 371.19"/><polygon class="cls-6" points="498.42 371.19 498.42 376.17 520.77 373.23 523.14 371.19 498.42 371.19"/><rect class="cls-5" x="536.92" y="176.55" width="158.59" height="234.1" transform="translate(1184.22 547.75) rotate(180)"/><rect class="cls-7" x="638.93" y="176.55" width="39.28" height="234.1" transform="translate(1268.94 547.75) rotate(180)"/><rect class="cls-7" x="625.73" y="176.55" width="5.58" height="234.1" transform="translate(1208.82 547.75) rotate(180)"/><polygon class="cls-6" points="647.29 137.09 647.26 149.36 488.71 144.21 488.71 137.09 647.29 137.09"/><rect class="cls-7" x="533.14" y="229.59" width="45.15" height="40.81" transform="translate(1063.22 460.54) rotate(180)"/><rect class="cls-8" x="537.55" y="234.28" width="36.33" height="15.72" transform="translate(1063.22 444.82) rotate(180)"/><rect class="cls-4" x="530.08" y="190.13" width="8.81" height="40.81"/><rect class="cls-9" x="568.27" y="253.09" width="5.61" height="3.43" transform="translate(1093.94 470.16) rotate(180)"/><rect class="cls-9" x="558.89" y="253.09" width="5.61" height="3.43" transform="translate(1075.17 470.16) rotate(180)"/><rect class="cls-9" x="549.5" y="253.09" width="5.61" height="3.43" transform="translate(1056.39 470.16) rotate(180)"/><rect class="cls-5" x="537.55" y="253.09" width="5.61" height="3.43" transform="translate(1032.5 470.16) rotate(180)"/><path class="cls-4" d="M602.24,402.26a1.52,1.52,0,1,0,1.52-1.52A1.52,1.52,0,0,0,602.24,402.26Z" transform="translate(-48.21 -39.46)"/><path class="cls-4" d="M611.64,402.26a1.52,1.52,0,1,0,1.52-1.52A1.52,1.52,0,0,0,611.64,402.26Z" transform="translate(-48.21 -39.46)"/><path class="cls-4" d="M602.24,353.14a1.52,1.52,0,1,0,1.52-1.52A1.52,1.52,0,0,0,602.24,353.14Z" transform="translate(-48.21 -39.46)"/><path class="cls-4" d="M611.64,353.14a1.52,1.52,0,1,0,1.52-1.52A1.52,1.52,0,0,0,611.64,353.14Z" transform="translate(-48.21 -39.46)"/><path class="cls-4" d="M602.24,297a1.52,1.52,0,1,0,1.52-1.51A1.52,1.52,0,0,0,602.24,297Z" transform="translate(-48.21 -39.46)"/><path class="cls-4" d="M611.64,297a1.52,1.52,0,1,0,1.52-1.51A1.52,1.52,0,0,0,611.64,297Z" transform="translate(-48.21 -39.46)"/><path class="cls-4" d="M602.24,240.94a1.52,1.52,0,1,0,1.52-1.51A1.52,1.52,0,0,0,602.24,240.94Z" transform="translate(-48.21 -39.46)"/><path class="cls-4" d="M611.64,240.94a1.52,1.52,0,1,0,1.52-1.51A1.52,1.52,0,0,0,611.64,240.94Z" transform="translate(-48.21 -39.46)"/><path class="cls-4" d="M602.24,185a1.52,1.52,0,1,0,1.52-1.52A1.52,1.52,0,0,0,602.24,185Z" transform="translate(-48.21 -39.46)"/><path class="cls-4" d="M611.64,185a1.52,1.52,0,1,0,1.52-1.52A1.52,1.52,0,0,0,611.64,185Z" transform="translate(-48.21 -39.46)"/><line class="cls-10" x1="560.25" y1="371.19" x2="560.25" y2="137.09"/><rect class="cls-5" x="530.65" y="167.02" width="171.14" height="9.54" transform="translate(1184.22 304.11) rotate(180)"/><path class="cls-5" d="M615.19,129.2h2A99.91,99.91,0,0,1,695.51,167H536.92A99.91,99.91,0,0,1,615.19,129.2Z" transform="translate(-48.21 -39.46)"/><path class="cls-5" d="M536.93,167H695.51c-.84-1.05-1.69-2.09-2.58-3.1a99.82,99.82,0,0,0-75.69-34.72h-2a99.75,99.75,0,0,0-71.71,30.37A97,97,0,0,0,536.93,167Z" transform="translate(-48.21 -39.46)"/><path class="cls-7" d="M615.19,129.2c24.28,0,23.75,37.82,23.75,37.82h39.28C664.83,129.2,615.19,129.2,615.19,129.2Z" transform="translate(-48.21 -39.46)"/><path class="cls-7" d="M612.56,129.23c16,0,13.17,37.79,13.17,37.79h5.58C631.31,126.28,612.56,129.23,612.56,129.23Z" transform="translate(-48.21 -39.46)"/><path class="cls-6" d="M536.93,167H695.51c-.84-1.05-1.69-2.09-2.58-3.1l-149.44-4.35A97,97,0,0,0,536.93,167Z" transform="translate(-48.21 -39.46)"/></g><g id="Pipes"><rect class="cls-7" x="65.51" y="35" width="184.03" height="9"/><rect class="cls-5" x="65.51" y="40.86" width="184.03" height="3.14"/><rect class="cls-7" x="249.53" y="35" width="322.97" height="9"/><rect class="cls-5" x="249.53" y="40.86" width="322.97" height="3.14"/><path class="cls-11" d="M185.16,396V294.44a4.18,4.18,0,0,1,4.17-4.18h99.42" transform="translate(-48.21 -39.46)"/><path class="cls-11" d="M205.54,396v-81.6a4.18,4.18,0,0,1,4.17-4.18h79" transform="translate(-48.21 -39.46)"/><path class="cls-11" d="M195.33,396V284.44a4.18,4.18,0,0,1,4.17-4.18h89.25" transform="translate(-48.21 -39.46)"/><path class="cls-11" d="M216.5,396v-91.6a4.18,4.18,0,0,1,4.17-4.18h68.08" transform="translate(-48.21 -39.46)"/><path class="cls-11" d="M177.42,391.37V416a3.87,3.87,0,0,0,3.87,3.87h0a3.87,3.87,0,0,0,3.87-3.87V362.88" transform="translate(-48.21 -39.46)"/><path class="cls-11" d="M197.8,391.37V416a3.87,3.87,0,0,0,3.87,3.87h0a3.87,3.87,0,0,0,3.87-3.87V362.88" transform="translate(-48.21 -39.46)"/><path class="cls-11" d="M187.59,381.37V406a3.87,3.87,0,0,0,3.87,3.87h0a3.87,3.87,0,0,0,3.87-3.87V352.88" transform="translate(-48.21 -39.46)"/><path class="cls-11" d="M208.76,381.37V406a3.87,3.87,0,0,0,3.87,3.87h0A3.87,3.87,0,0,0,216.5,406V352.88" transform="translate(-48.21 -39.46)"/><rect class="cls-7" x="173.23" y="189.98" width="240.04" height="9" transform="translate(50.55 448.26) rotate(-90)"/><rect class="cls-5" x="170.3" y="192.91" width="240.04" height="3.14" transform="translate(47.62 445.33) rotate(-90)"/><rect class="cls-5" x="233.7" y="238.48" width="6.83" height="4.66"/><rect class="cls-5" x="233.7" y="248.48" width="6.83" height="4.66"/><rect class="cls-5" x="233.7" y="258.48" width="6.83" height="4.66"/><rect class="cls-5" x="233.7" y="268.48" width="6.83" height="4.66"/><rect class="cls-5" x="224.6" y="68.85" width="40.87" height="68.89"/><rect class="cls-4" x="229.9" y="74.53" width="30.26" height="19.38"/><rect class="cls-8" x="229.9" y="116.76" width="30.26" height="15.59"/><rect class="cls-4" x="229.9" y="98.47" width="30.26" height="5.14"/><rect class="cls-9" x="229.9" y="107.24" width="7.63" height="5.14"/><rect class="cls-9" x="240.75" y="107.24" width="7.63" height="5.14"/><rect class="cls-7" x="357.24" y="189.98" width="240.04" height="9" transform="translate(234.56 632.28) rotate(-90)"/><rect class="cls-5" x="354.31" y="192.91" width="240.04" height="3.14" transform="translate(231.63 629.34) rotate(-90)"/><rect class="cls-5" x="417.71" y="238.48" width="6.83" height="4.66"/><rect class="cls-5" x="417.71" y="248.48" width="6.83" height="4.66"/><rect class="cls-5" x="417.71" y="258.48" width="6.83" height="4.66"/><rect class="cls-5" x="417.71" y="268.48" width="6.83" height="4.66"/><rect class="cls-5" x="408.61" y="68.85" width="40.87" height="68.89"/><rect class="cls-4" x="413.91" y="74.53" width="30.26" height="19.38"/><rect class="cls-8" x="413.91" y="116.76" width="30.26" height="15.59"/><rect class="cls-4" x="413.91" y="98.47" width="30.26" height="5.14"/><rect class="cls-9" x="413.91" y="107.24" width="7.63" height="5.14"/><rect class="cls-9" x="424.76" y="107.24" width="7.63" height="5.14"/><rect class="cls-7" x="-1.8" y="189.96" width="240.04" height="9" transform="translate(-124.45 273.22) rotate(-90)"/><rect class="cls-5" x="-4.73" y="192.89" width="240.04" height="3.14" transform="translate(-127.39 270.28) rotate(-90)"/><rect class="cls-5" x="58.67" y="238.45" width="6.83" height="4.66"/><rect class="cls-5" x="58.67" y="248.45" width="6.83" height="4.66"/><rect class="cls-5" x="58.67" y="258.45" width="6.83" height="4.66"/><rect class="cls-5" x="58.67" y="268.45" width="6.83" height="4.66"/><rect class="cls-5" x="49.57" y="68.83" width="40.87" height="68.89"/><rect class="cls-4" x="54.87" y="74.5" width="30.26" height="19.38"/><rect class="cls-8" x="54.87" y="116.74" width="30.26" height="15.59"/><rect class="cls-4" x="54.87" y="98.45" width="30.26" height="5.14"/><rect class="cls-9" x="54.87" y="107.22" width="7.63" height="5.14"/><rect class="cls-9" x="65.72" y="107.22" width="7.63" height="5.14"/><rect class="cls-7" x="588.41" y="97.77" width="55.62" height="9" transform="translate(670.27 -553.41) rotate(90)"/><rect class="cls-5" x="585.48" y="100.7" width="55.62" height="3.14" transform="translate(667.34 -550.48) rotate(90)"/><rect class="cls-4" x="612.6" y="112.97" width="7.23" height="26.99" transform="translate(694.47 -529.21) rotate(90)"/></g><g id="Cow"><path class="cls-9" d="M160.89,275.4c3.38,13,16,81.13,16.46,86.55s-6.09,30.81-6.09,33.52,18.79,38.72,18.79,38.72l1.75-4.44,4,4.14s-.53-3.76-1.58-5.42-3.77-5.57-3.77-5.57.76-19.56,1.81-24.83,23.18-32.21,28.14-45.15,2.86-47.26,2.11-53.88S160,271.78,160.89,275.4Z" transform="translate(-48.21 -39.46)"/><path class="cls-12" d="M160.89,275.4c3.38,13,16,81.13,16.46,86.55s-6.09,30.81-6.09,33.52,18.79,38.72,18.79,38.72l1.75-4.44,4,4.14s-.53-3.76-1.58-5.42-3.77-5.57-3.77-5.57.76-19.56,1.81-24.83,23.18-32.21,28.14-45.15,2.86-47.26,2.11-53.88S160,271.78,160.89,275.4Z" transform="translate(-48.21 -39.46)"/><path class="cls-11" d="M177.42,391.37V416a3.87,3.87,0,0,0,3.87,3.87h0a3.87,3.87,0,0,0,3.87-3.87V362.88" transform="translate(-48.21 -39.46)"/><path class="cls-11" d="M197.8,391.37V416a3.87,3.87,0,0,0,3.87,3.87h0a3.87,3.87,0,0,0,3.87-3.87V362.88" transform="translate(-48.21 -39.46)"/><path class="cls-11" d="M187.59,381.37V406a3.87,3.87,0,0,0,3.87,3.87h0a3.87,3.87,0,0,0,3.87-3.87V352.88" transform="translate(-48.21 -39.46)"/><path class="cls-11" d="M208.76,381.37V406a3.87,3.87,0,0,0,3.87,3.87h0A3.87,3.87,0,0,0,216.5,406V352.88" transform="translate(-48.21 -39.46)"/><path class="cls-13" d="M156.93,333.62h7.23a0,0,0,0,1,0,0v12a3.62,3.62,0,0,1-3.62,3.62h0a3.62,3.62,0,0,1-3.62-3.62v-12A0,0,0,0,1,156.93,333.62Z"/><path class="cls-14" d="M156.93,333.62h7.23a0,0,0,0,1,0,0v12a3.62,3.62,0,0,1-3.62,3.62h0a3.62,3.62,0,0,1-3.62-3.62v-12A0,0,0,0,1,156.93,333.62Z"/><path class="cls-13" d="M135.76,333.62H143a0,0,0,0,1,0,0v12a3.62,3.62,0,0,1-3.62,3.62h0a3.62,3.62,0,0,1-3.62-3.62v-12A0,0,0,0,1,135.76,333.62Z"/><path class="cls-14" d="M135.76,333.62H143a0,0,0,0,1,0,0v12a3.62,3.62,0,0,1-3.62,3.62h0a3.62,3.62,0,0,1-3.62-3.62v-12A0,0,0,0,1,135.76,333.62Z"/><path class="cls-13" d="M158.55,378.24s38.28,5.42,51.82,0a47.51,47.51,0,0,0,23.8-20.73L179.49,342Z" transform="translate(-48.21 -39.46)"/><path class="cls-13" d="M125.59,336.29h7.23a0,0,0,0,1,0,0v12a3.62,3.62,0,0,1-3.62,3.62h0a3.62,3.62,0,0,1-3.62-3.62v-12A0,0,0,0,1,125.59,336.29Z"/><path class="cls-13" d="M197.8,391.37h0a3.62,3.62,0,0,1-3.62-3.62v-12h7.23v12A3.62,3.62,0,0,1,197.8,391.37Z" transform="translate(-48.21 -39.46)"/><path class="cls-5" d="M177.42,392.74h0A4.44,4.44,0,0,1,173,388.3V387h8.88v1.29A4.44,4.44,0,0,1,177.42,392.74Z" transform="translate(-48.21 -39.46)"/><path class="cls-4" d="M181.86,387v1.29L173,389a4.37,4.37,0,0,1-.06-.72V387Z" transform="translate(-48.21 -39.46)"/><rect class="cls-5" x="124.22" y="346.53" width="9.96" height="2.1"/><path class="cls-5" d="M187.59,390.66h0a4.43,4.43,0,0,1-4.44-4.43v-1.3H192v1.3A4.43,4.43,0,0,1,187.59,390.66Z" transform="translate(-48.21 -39.46)"/><path class="cls-4" d="M192,384.93v1.29l-8.82.72a4.37,4.37,0,0,1-.06-.72v-1.29Z" transform="translate(-48.21 -39.46)"/><rect class="cls-5" x="134.39" y="344.46" width="9.96" height="2.1"/><path class="cls-5" d="M156.1,345.47H165a0,0,0,0,1,0,0v1.3a4.44,4.44,0,0,1-4.44,4.44h0a4.44,4.44,0,0,1-4.44-4.44v-1.3A0,0,0,0,1,156.1,345.47Z"/><path class="cls-4" d="M213.2,384.93v1.29l-8.82.72a4.37,4.37,0,0,1-.06-.72v-1.29Z" transform="translate(-48.21 -39.46)"/><rect class="cls-5" x="155.56" y="344.46" width="9.96" height="2.1"/><path class="cls-5" d="M197.8,392.74h0a4.44,4.44,0,0,1-4.44-4.44V387h8.88v1.29A4.44,4.44,0,0,1,197.8,392.74Z" transform="translate(-48.21 -39.46)"/><path class="cls-4" d="M202.24,387v1.29l-8.82.72a4.37,4.37,0,0,1-.06-.72V387Z" transform="translate(-48.21 -39.46)"/><rect class="cls-5" x="144.6" y="346.53" width="9.96" height="2.1"/><path class="cls-9" d="M334.25,299.79s4.79,23.34,2.93,29c-1.06,3.25-19.6,56.21-19.6,58.92s8.32,46.51,8.32,46.51l1.75-4.44,4,4.14a31,31,0,0,0-1.58-5.42c-.92-1.94-2.12-5.57-2.12-5.57s7.3-19.89,9.33-26.64c1.54-5.14,29.4-30.61,37.63-43.49,2.57-4,18.06-43.64,20.41-53.73C396.81,292.55,333.31,296.17,334.25,299.79Z" transform="translate(-48.21 -39.46)"/><path class="cls-12" d="M334.25,299.79s4.79,23.34,2.93,29c-1.06,3.25-19.6,56.21-19.6,58.92s8.32,46.51,8.32,46.51l1.75-4.44,4,4.14a31,31,0,0,0-1.58-5.42c-.92-1.94-2.12-5.57-2.12-5.57s7.3-19.89,9.33-26.64c1.54-5.14,29.4-30.61,37.63-43.49,2.57-4,18.06-43.64,20.41-53.73C396.81,292.55,333.31,296.17,334.25,299.79Z" transform="translate(-48.21 -39.46)"/><path class="cls-9" d="M119.78,233.27c.75-9.63,22.58-39.73,30.71-42.89s113.32,10.38,127.32,9.93,86.78-13.32,94.91-16.48,39.54,41.58,39.54,41.58c-2.71.9-13.44,65.43-18,75.58S332,356.3,325.22,356.76s-65.47,5-92.56,4.51-64.11-6.55-73.59-11.06S116.85,271.19,119.78,233.27Z" transform="translate(-48.21 -39.46)"/><path class="cls-15" d="M119.78,233.27c.75-9.63,22.58-39.73,30.71-42.89s113.32,10.38,127.32,9.93,86.78-13.32,94.91-16.48,39.54,41.58,39.54,41.58c-2.71.9-13.44,65.43-18,75.58S332,356.3,325.22,356.76s-65.47,5-92.56,4.51-64.11-6.55-73.59-11.06S116.85,271.19,119.78,233.27Z" transform="translate(-48.21 -39.46)"/><path class="cls-4" d="M370.9,210.77c-6.18,7.92-3.79,31.69-22.71,34.24s-21.72-15.32-36.85-18.74C296.86,223,288.34,215,281.91,200c20.48-2,83.3-13.27,90.82-16.19,3.08-1.21,8-4.38,13.24-8a27.75,27.75,0,0,1,1.93,8.42C388.67,199.74,377.11,202.85,370.9,210.77Z" transform="translate(-48.21 -39.46)"/><path class="cls-4" d="M290,241.07c-6.21-18.81-47.94-3.1-59,0s-43.74-10.67-57.17,0S167,275,192.24,283.8c14.46,5.06,27.13,34.77,54.68,31.32s22.39-26.17,27.9-37.54S295.27,256.92,290,241.07Z" transform="translate(-48.21 -39.46)"/><path class="cls-4" d="M244.38,197.63a13.93,13.93,0,0,1-2.18,4.07c-7.86,10.19-30.88.84-37.87,4.35s-29.12,11.93-35.08-3.73c-2.18-5.69-2.49-9.11-1.93-12C187,191.6,219.43,195.14,244.38,197.63Z" transform="translate(-48.21 -39.46)"/><path class="cls-4" d="M410.58,229.51c-2.83,10.22-7.86,37.28-11.93,55.4-5.19-2.61-5.13-10.32-6.5-17-1.43-7-7.86-12.21-7.27-22.56S397.44,229.91,410.58,229.51Z" transform="translate(-48.21 -39.46)"/><path class="cls-9" d="M372.25,179.87S348.13,163,346.81,159.43s1.56-36.59,3.44-37.65c1.48-.82,7,23.31,9,26.79,2.95,5.14,21.81,14.93,21.81,14.93Z" transform="translate(-48.21 -39.46)"/><path class="cls-16" d="M372.25,179.87S348.13,163,346.81,159.43s1.56-36.59,3.44-37.65c1.48-.82,7,23.31,9,26.79,2.95,5.14,21.81,14.93,21.81,14.93Z" transform="translate(-48.21 -39.46)"/><path class="cls-9" d="M373.51,177.72c-5,1.31-16.33-.79-21.82-1.23s-19.72,15.17-19,15.71,17.05,4.12,21.78,2.68,10.46-11.31,18.53-14Z" transform="translate(-48.21 -39.46)"/><path class="cls-15" d="M373.51,177.72c-5,1.31-16.33-.79-21.82-1.23s-19.72,15.17-19,15.71,17.05,4.12,21.78,2.68,10.46-11.31,18.53-14Z" transform="translate(-48.21 -39.46)"/><path class="cls-14" d="M338.38,190.07a81.13,81.13,0,0,1,9.53-7.69,9.52,9.52,0,0,1,3.88-1.79c5.44-.33,10.77.68,16.1-.73l2.43-.4a64.15,64.15,0,0,0-7.41,6.55c-2.6,2.62-5.43,6.06-9.41,6.44a27,27,0,0,1-3.82-.09q-3.78-.35-7.5-1a74.26,74.26,0,0,0,11.25.34c3.7-.56,6.1-3.92,8.63-6.45a51,51,0,0,1,5.56-5.24l.54,1.13c-5.29,1.38-11,.37-16.33.47-4.84,1.39-9.27,5.64-13.45,8.49Z" transform="translate(-48.21 -39.46)"/><path class="cls-9" d="M442,179.87s24.12-16.89,25.44-20.44-1.56-36.59-3.44-37.65c-1.47-.82-7,23.31-9,26.79-2.95,5.14-21.8,14.93-21.8,14.93Z" transform="translate(-48.21 -39.46)"/><path class="cls-16" d="M442,179.87s24.12-16.89,25.44-20.44-1.56-36.59-3.44-37.65c-1.47-.82-7,23.31-9,26.79-2.95,5.14-21.8,14.93-21.8,14.93Z" transform="translate(-48.21 -39.46)"/><path class="cls-9" d="M440.73,177.72c5,1.31,16.33-.79,21.83-1.23s19.72,15.17,19,15.71-17.05,4.12-21.79,2.68-10.45-11.31-18.53-14Z" transform="translate(-48.21 -39.46)"/><path class="cls-15" d="M440.73,177.72c5,1.31,16.33-.79,21.83-1.23s19.72,15.17,19,15.71-17.05,4.12-21.79,2.68-10.45-11.31-18.53-14Z" transform="translate(-48.21 -39.46)"/><path class="cls-14" d="M475.87,190.07a82.82,82.82,0,0,0-9.53-7.69,9.62,9.62,0,0,0-3.89-1.79c-5.44-.33-10.77.68-16.09-.73l-2.44-.4a64.15,64.15,0,0,1,7.41,6.55c2.6,2.62,5.43,6.06,9.41,6.44a27.11,27.11,0,0,0,3.83-.09q3.78-.35,7.5-1a74.39,74.39,0,0,1-11.26.34c-3.69-.56-6.1-3.92-8.63-6.45a50.1,50.1,0,0,0-5.56-5.24l-.53,1.13c5.29,1.38,10.94.37,16.32.47,4.85,1.39,9.27,5.64,13.46,8.49Z" transform="translate(-48.21 -39.46)"/><path class="cls-9" d="M454.51,235.46c-3.13,7.07-19.43,13.29-20.69,14.11s-4,11.9-6.95,13.62c-2.05,1.18-11.76,3.25-19.75,3.25s-17.7-2.07-19.75-3.25c-3-1.72-5.69-12.81-6.94-13.62s-17.57-7-20.7-14.11c-3.44-7.77,8.42-58.72,13.13-68.31,3.36-6.83,18.7-11.12,34.26-11.12s30.9,4.29,34.26,11.12C446.09,176.74,458,227.69,454.51,235.46Z" transform="translate(-48.21 -39.46)"/><path class="cls-15" d="M454.51,235.46c-3.13,7.07-19.43,13.29-20.69,14.11s-4,11.9-6.95,13.62c-2.05,1.18-11.76,3.25-19.75,3.25s-17.7-2.07-19.75-3.25c-3-1.72-5.69-12.81-6.94-13.62s-17.57-7-20.7-14.11c-3.44-7.77,8.42-58.72,13.13-68.31,3.36-6.83,18.7-11.12,34.26-11.12s30.9,4.29,34.26,11.12C446.09,176.74,458,227.69,454.51,235.46Z" transform="translate(-48.21 -39.46)"/><path class="cls-17" d="M406.71,266.42c-7.9-.06-17.33-2.07-19.34-3.23-3-1.72-5.69-12.81-6.95-13.63s-17.56-7-20.69-14.09c-3.44-7.78,8.42-58.74,13.12-68.32,1.19-2.4,3.83-4.48,7.45-6.17-4.29,2.55-12.22,63.8-11.12,69s15.71,15.57,16.66,17,3.66,12.36,5.56,14.42S402.29,266.25,406.71,266.42Z" transform="translate(-48.21 -39.46)"/><path class="cls-4" d="M386.57,224.83c0-.17-.37.21-.37.39.16,4.41-.47,9.48-4.84,10.95-.14,0-.12.27,0,.24C386.74,235.72,387.5,229,386.57,224.83Z" transform="translate(-48.21 -39.46)"/><path class="cls-4" d="M382.25,220.23c-7.77-.53-8.36,13.69-1.16,14.18S388.77,220.67,382.25,220.23Z" transform="translate(-48.21 -39.46)"/><path class="cls-4" d="M429.34,224.83c0-.17.38.21.37.39-.16,4.41.48,9.48,4.85,10.95.13,0,.12.27,0,.24C429.18,235.72,428.42,229,429.34,224.83Z" transform="translate(-48.21 -39.46)"/><path class="cls-4" d="M433.67,220.23c7.77-.53,8.36,13.69,1.16,14.18S427.15,220.67,433.67,220.23Z" transform="translate(-48.21 -39.46)"/><path class="cls-6" d="M396.5,164.28c-2.91,5.29-4.91,11.28-3.62,17.36.65,3.09,2.27,7.15,5.58,8,4.67,1.24,6.41-6,7.63-9.21.16-.41.86-.41.83.11-.3,4.87.23,12.09,3.64,16,1.38,1.57,4,2.8,6.05,1.65,1.74-1,2.31-3.28,2.64-5.06a22.39,22.39,0,0,0-.13-8.4.4.4,0,0,1,.77-.19,22.19,22.19,0,0,0,1.71,3.54c.9,1.45,2.12,3.85,2.74.7.38-2-1.15-4.84-2.19-6.44-.19-.29.27-.53.47-.26a11.8,11.8,0,0,1,2.28,5.37c.12.86.45,2.83-.25,3.57-1.34,1.4-3.12-1.3-4.29-3.6.54,5.38-.31,13.46-6.66,12.12-6.19-1.29-7.57-9.75-7.67-15.87-.94,2.93-2.35,6.21-4.93,7.13-3.19,1.12-6-1.54-7.37-4.12-3.87-7.24-2.83-14.06,2.46-22.39C396.35,164,396.65,164,396.5,164.28Z" transform="translate(-48.21 -39.46)"/><path class="cls-13" d="M428.44,263.19c-4.74,3.48-13.14,5-20.54,5s-15.79-1.49-20.53-5-5.36-18-2.28-19.81c4.6-2.67,17.36,1.17,22.81,1.17s18.22-3.84,22.81-1.17C433.8,245.18,433.17,259.72,428.44,263.19Z" transform="translate(-48.21 -39.46)"/><path class="cls-14" d="M393.05,255.63c-.55-3.4.61-6.32,2.6-6.52s4.06,2.39,4.62,5.79-.61,6.32-2.6,6.52S393.61,259,393.05,255.63Z" transform="translate(-48.21 -39.46)"/><path class="cls-14" d="M422.75,255.63c.56-3.4-.6-6.32-2.59-6.52s-4.06,2.39-4.62,5.79.6,6.32,2.6,6.52S422.2,259,422.75,255.63Z" transform="translate(-48.21 -39.46)"/><path class="cls-4" d="M366.43,188c-1,6.28-2.8,12.95-4.37,19.11A60.93,60.93,0,0,1,366.43,188Z" transform="translate(-48.21 -39.46)"/><path class="cls-4" d="M365.35,241.48c4.56,3.64,10.09,5.21,15.33,7.66a2.26,2.26,0,0,1,.85,1.08c1.53,3.61,2.06,7.67,4.33,10.93a9.16,9.16,0,0,0,3,3c-2.68-1.18-4.42-3.85-5.57-6.47-1-2.23-1.66-4.78-2.63-7a1.87,1.87,0,0,0-.41-.62c-5.12-2.38-10.9-4.33-14.88-8.54Z" transform="translate(-48.21 -39.46)"/><path class="cls-4" d="M366.08,244.16c3,.94,5.74,2.31,8.84,2.84-3.15.52-6.36-1-8.84-2.84Z" transform="translate(-48.21 -39.46)"/><path class="cls-4" d="M363.72,197.49c-1.07,2.11-2.11,4-3.15,6.1a7.91,7.91,0,0,1,3.15-6.1Z" transform="translate(-48.21 -39.46)"/><path class="cls-9" d="M142.39,197c-8.31,3.43-19.29,9.75-24.11,14.57s-25.14,42-28.35,50.37c-2.82,7.38-3.14,35.16-3.14,35.16l4.45,1s2.24-29.5,4.45-33.53c5-9,23.34-39.75,27.86-40.8Z" transform="translate(-48.21 -39.46)"/><g class="cls-18"><path class="cls-8" d="M142.39,197c-8.31,3.43-19.29,9.75-24.11,14.57s-25.14,42-28.35,50.37c-2.82,7.38-3.14,35.16-3.14,35.16l4.45,1s2.24-29.5,4.45-33.53c5-9,23.34-39.75,27.86-40.8Z" transform="translate(-48.21 -39.46)"/></g><path class="cls-19" d="M142.4,197l-18.85,26.76a4.41,4.41,0,0,0-1.74,1.16l6.93-21A105.49,105.49,0,0,1,142.4,197Z" transform="translate(-48.21 -39.46)"/><path class="cls-4" d="M87.73,295.45c-5.78,2.21-8,9.68-8,11.82s4.62,9.45,5.57,10.61,1.14-4.31,1.14-4.31,8.24,15.31,10.11,14.75.14-17.42.14-17.42,1.94,3.08,2.71,2.84-.06-7.93-1.55-11.18-7.55-6.85-7.55-6.85Z" transform="translate(-48.21 -39.46)"/><path class="cls-9" d="M315.59,299.79s2.15,23.56.3,29.2c-1.07,3.25-25.85,56-25.85,58.69s18.79,46.51,18.79,46.51l1.75-4.44,4,4.14s-.52-3.76-1.58-5.42-3.76-5.57-3.76-5.57.75-19.56,1.81-24.83,34.72-33.14,44-45.3S391.37,307.1,395.3,299C398.21,293.05,314.64,296.17,315.59,299.79Z" transform="translate(-48.21 -39.46)"/><path class="cls-15" d="M315.59,299.79s2.15,23.56.3,29.2c-1.07,3.25-25.85,56-25.85,58.69s18.79,46.51,18.79,46.51l1.75-4.44,4,4.14s-.52-3.76-1.58-5.42-3.76-5.57-3.76-5.57.75-19.56,1.81-24.83,34.72-33.14,44-45.3S391.37,307.1,395.3,299C398.21,293.05,314.64,296.17,315.59,299.79Z" transform="translate(-48.21 -39.46)"/><path class="cls-14" d="M302.66,358.33c3.2-9.06,7.69-17.66,11-26.61.34-8.45-1.67-16.85-2.66-25.24,2.13,8.29,4.39,16.8,4.13,25.43a6,6,0,0,1-.49,1.84c-3.85,8.27-7.68,16.54-12,24.58Z" transform="translate(-48.21 -39.46)"/><path class="cls-17" d="M311,398.07c-1.06,5.26-1.81,24.84-1.81,24.84s2.71,3.9,3.77,5.56,1.57,5.42,1.57,5.42l-4-4.15-1.75,4.45S290,390.39,290,387.68s24.78-55.44,25.85-58.7c-.4,6.08-8.44,43.07-9.64,46.51s-1.63,10.59,2.66,11.54c7.25,1.62,19.89-8.28,28.41-16C325.09,382.66,311.69,394.78,311,398.07Z" transform="translate(-48.21 -39.46)"/><path class="cls-9" d="M125.45,275.4c3.37,13,16,81.13,16.46,86.55s-6.1,30.81-6.1,33.52,18.8,38.72,18.8,38.72l1.75-4.44,4,4.14s-.52-3.76-1.58-5.42S155,422.9,155,422.9s.75-19.56,1.81-24.83S180,365.86,185,352.92s2.86-47.26,2.11-53.88S124.51,271.78,125.45,275.4Z" transform="translate(-48.21 -39.46)"/><path class="cls-15" d="M125.45,275.4c3.37,13,16,81.13,16.46,86.55s-6.1,30.81-6.1,33.52,18.8,38.72,18.8,38.72l1.75-4.44,4,4.14s-.52-3.76-1.58-5.42S155,422.9,155,422.9s.75-19.56,1.81-24.83S180,365.86,185,352.92s2.86-47.26,2.11-53.88S124.51,271.78,125.45,275.4Z" transform="translate(-48.21 -39.46)"/><path class="cls-14" d="M183.43,356.31c2.89-7.28,5.94-14.35,7.26-22.09l1.63-7.61c1.47-6.27,2.91-12.69,4.52-18.94a16.59,16.59,0,0,1,1.19-3.82,26.39,26.39,0,0,1,5.48-5.63c-2.75,2.84-5.43,5.55-5.73,9.64l-.75,3.83c-1.5,7.36-3.26,15.51-5,22.86-1.41,7.7-4.91,14.91-8.59,21.76Z" transform="translate(-48.21 -39.46)"/><path class="cls-17" d="M158.77,428.47c1,1.66,1.57,5.42,1.57,5.42l-4-4.15-1.75,4.45s-18.78-36-18.78-38.71,6.54-28.12,6.09-33.53-12.62-71.06-16.25-85.76c-.07-.28-.14-.55-.21-.79-4.11-15.43-6.57-30.51-5.66-42.13.17-2.21,1.45-5.5,3.43-9.3l2.45-3.2a25,25,0,0,0-2.16,11.95c1.2,13.33,7.14,29.72,13.2,44.5,8.85,21.6,18.6,73.18,20.51,84.08,1,5.67-4.69,18.32,3.68,16.08s22.53-21.06,22.53-21.06c-6.88,13.76-25.65,36.91-26.62,41.75-1.06,5.26-1.8,24.84-1.8,24.84S157.71,426.81,158.77,428.47Z" transform="translate(-48.21 -39.46)"/></g><g id="Fence"><rect class="cls-2" y="262.14" width="653.57" height="4.66"/><rect class="cls-3" y="265.18" width="653.57" height="1.62"/><rect class="cls-2" y="301.62" width="653.57" height="2.33"/><rect class="cls-3" y="303.14" width="653.57" height="0.81"/><rect class="cls-2" x="36.41" y="366.73" width="132.59" height="2.33" transform="translate(422.39 225.73) rotate(90)"/><rect class="cls-3" x="35.66" y="367.49" width="132.59" height="0.81" transform="translate(421.63 226.49) rotate(90)"/><rect class="cls-2" x="145.33" y="366.73" width="132.59" height="2.33" transform="translate(531.31 116.81) rotate(90)"/><rect class="cls-3" x="144.57" y="367.49" width="132.59" height="0.81" transform="translate(530.55 117.57) rotate(90)"/><rect class="cls-2" x="254.25" y="366.73" width="132.59" height="2.33" transform="translate(640.22 7.9) rotate(90)"/><rect class="cls-3" x="253.49" y="367.49" width="132.59" height="0.81" transform="translate(639.47 8.65) rotate(90)"/><rect class="cls-2" x="363.17" y="366.73" width="132.59" height="2.33" transform="translate(749.14 -101.02) rotate(90)"/><rect class="cls-3" x="362.41" y="367.49" width="132.59" height="0.81" transform="translate(748.38 -100.26) rotate(90)"/><rect class="cls-2" x="472.08" y="366.73" width="132.59" height="2.33" transform="translate(858.06 -209.94) rotate(90)"/><rect class="cls-3" x="471.32" y="367.49" width="132.59" height="0.81" transform="translate(857.3 -209.18) rotate(90)"/><rect class="cls-2" x="581" y="366.73" width="132.59" height="2.33" transform="translate(966.98 -318.86) rotate(90)"/><rect class="cls-3" x="580.24" y="367.49" width="132.59" height="0.81" transform="translate(966.22 -318.1) rotate(90)"/><rect class="cls-2" y="348.41" width="653.57" height="2.33"/><rect class="cls-3" y="349.93" width="653.57" height="0.81"/></g><g id="Character"><path class="cls-20" d="M565.69,468.49c-2.42.76-71-.71-73.58-2.42-1-.64-1.35-10.65-1.45-22.74q0-3.93,0-8.05c0-3.25,2.26-34.83,2.26-34.83l44,.83-1.62,34.82-.38,8s26,12.31,28.63,14.49S568.09,467.75,565.69,468.49Z" transform="translate(-48.21 -39.46)"/><path class="cls-21" d="M565.69,468.5c-2.42.74-71-.73-73.58-2.43-1-.64-1.35-10.65-1.45-22.74,0-2.62,0-5.3,0-8.05,0-.59.09-2.11.2-4.21H535.5l-.24,5-.38,8s26,12.3,28.63,14.49S568.09,467.75,565.69,468.5Z" transform="translate(-48.21 -39.46)"/><path class="cls-9" d="M566.71,466.49v5.23a1,1,0,0,1-1,1h-.32a1,1,0,0,1-1-.78,3,3,0,0,0-5.74,0,1,1,0,0,1-1,.78h-1.5a1,1,0,0,1-1-.78,3,3,0,0,0-5.73,0,1,1,0,0,1-1,.78h-1.5a1,1,0,0,1-1-.78,3,3,0,0,0-5.74,0,1,1,0,0,1-1,.78h-1.49a1,1,0,0,1-1-.78,3,3,0,0,0-5.73,0,1,1,0,0,1-1,.78h-1.49a1,1,0,0,1-1-.78,3,3,0,0,0-5.74,0,1,1,0,0,1-1,.78h-1.5a1,1,0,0,1-1-.78,3,3,0,0,0-5.73,0,1,1,0,0,1-1,.78h-1.5a1,1,0,0,1-1-.78,3,3,0,0,0-5.74,0,1,1,0,0,1-1,.78h-1.5a1,1,0,0,1-1-.78,3,3,0,0,0-5.73,0,1,1,0,0,1-1,.78h-1.07a1,1,0,0,1-1-1v-5.23a1,1,0,0,1,1-1h73.2A1,1,0,0,1,566.71,466.49Z" transform="translate(-48.21 -39.46)"/><g class="cls-22"><path d="M566.71,466.49v5.23a1,1,0,0,1-1,1h-.32a1,1,0,0,1-1-.78,3,3,0,0,0-5.74,0,1,1,0,0,1-1,.78h-1.5a1,1,0,0,1-1-.78,3,3,0,0,0-5.73,0,1,1,0,0,1-1,.78h-1.5a1,1,0,0,1-1-.78,3,3,0,0,0-5.74,0,1,1,0,0,1-1,.78h-1.49a1,1,0,0,1-1-.78,3,3,0,0,0-5.73,0,1,1,0,0,1-1,.78h-1.49a1,1,0,0,1-1-.78,3,3,0,0,0-5.74,0,1,1,0,0,1-1,.78h-1.5a1,1,0,0,1-1-.78,3,3,0,0,0-5.73,0,1,1,0,0,1-1,.78h-1.5a1,1,0,0,1-1-.78,3,3,0,0,0-5.74,0,1,1,0,0,1-1,.78h-1.5a1,1,0,0,1-1-.78,3,3,0,0,0-5.73,0,1,1,0,0,1-1,.78h-1.07a1,1,0,0,1-1-1v-5.23a1,1,0,0,1,1-1h73.2A1,1,0,0,1,566.71,466.49Z" transform="translate(-48.21 -39.46)"/></g><path class="cls-9" d="M565.89,468.6c-1.57.48-30.79,0-52-.79-4.92-.19-9.41-.41-13-.64-5-.32-8.36-.65-8.9-1-1.19-.8-1.49-15.48-1.48-31l44.87.83-.38,8.08s26.15,12.38,28.79,14.57S568.31,467.84,565.89,468.6Z" transform="translate(-48.21 -39.46)"/><path class="cls-9" d="M565.89,468.6c-1.57.48-30.79,0-52-.79-4.92-.19-9.41-.41-13-.64-5-.32-8.36-.65-8.9-1-1.19-.8-1.49-15.48-1.48-31l44.87.83-.38,8.08s26.15,12.38,28.79,14.57S568.31,467.84,565.89,468.6Z" transform="translate(-48.21 -39.46)"/><path class="cls-23" d="M565.89,468.6c-1.57.48-30.79,0-52-.79-4.92-.19-9.41-.41-13-.64-5-.32-8.36-.65-8.9-1-1.19-.8-1.49-15.48-1.48-31l44.87.83-.38,8.08s26.15,12.38,28.79,14.57S568.31,467.84,565.89,468.6Z" transform="translate(-48.21 -39.46)"/><path class="cls-9" d="M565,465.82c-11.55-.53-58.2-1.58-69.66-1.23-.1,0-.1.07,0,.07,11.44.78,58.1,1.45,69.67,1.35C565.2,466,565.21,465.83,565,465.82Z" transform="translate(-48.21 -39.46)"/><path class="cls-9" d="M536.6,441.58c-4.53-.94-10.11-.36-13.66,2.8-.14.13,0,.32.19.28a63.84,63.84,0,0,1,13.44-2.5A.29.29,0,0,0,536.6,441.58Z" transform="translate(-48.21 -39.46)"/><path class="cls-9" d="M539.84,443.63c-4.53-.94-10.11-.37-13.66,2.8-.13.12,0,.32.19.27a64.47,64.47,0,0,1,13.44-2.49A.29.29,0,0,0,539.84,443.63Z" transform="translate(-48.21 -39.46)"/><path class="cls-9" d="M543.08,445.68c-4.53-.95-10.11-.37-13.66,2.8-.13.12,0,.32.19.27a64.47,64.47,0,0,1,13.44-2.49A.29.29,0,0,0,543.08,445.68Z" transform="translate(-48.21 -39.46)"/><path class="cls-9" d="M546.32,447.73c-4.53-1-10.11-.37-13.65,2.8-.14.12,0,.32.18.27a64.49,64.49,0,0,1,13.44-2.5A.29.29,0,0,0,546.32,447.73Z" transform="translate(-48.21 -39.46)"/><path class="cls-9" d="M545.22,431.24c-1.73-2.5-5.08-1.46-7,.09A24.32,24.32,0,0,0,531,441.6a.12.12,0,0,0,.11.17.56.56,0,0,0,.7.58c3.79-1.31,8-2.24,11.27-4.67C545,436.26,546.86,433.61,545.22,431.24Zm-8.11,7.95c-1.84.69-3.71,1.29-5.53,2.05a71.25,71.25,0,0,1,4.35-5.91,24.79,24.79,0,0,1,2.47-2.55c1.38-1.21,6.79-3.71,5.88,1.26C543.78,436.78,539.31,438.37,537.11,439.19Z" transform="translate(-48.21 -39.46)"/><path class="cls-9" d="M519.44,440.17c3.71,1.68,8,1.69,12,2.16a.56.56,0,0,0,.56-.72.12.12,0,0,0,.07-.18,24.24,24.24,0,0,0-9.26-8.49c-2.22-1.11-5.71-1.41-6.87,1.41C514.84,437,517.27,439.19,519.44,440.17Zm-2-3.29c-2-4.66,3.88-3.37,5.48-2.49a26.23,26.23,0,0,1,3,2,72.11,72.11,0,0,1,5.51,4.83c-1.94-.35-3.89-.53-5.84-.81C523.23,440.05,518.53,439.45,517.45,436.88Z" transform="translate(-48.21 -39.46)"/><path class="cls-14" d="M490.44,441.07c.06,13.14.43,24.39,1.47,25.09.54.35,3.89.69,8.89,1,3.62.23,8.13.45,13,.64,4,.16,8.19.3,12.46.42C514.38,459.12,501,449,490.44,441.07Z" transform="translate(-48.21 -39.46)"/><path class="cls-9" d="M537.68,439.42H489a47.38,47.38,0,0,1-.29-12.66c2.59-27.88,10-92.24,9.71-93.79-.49-2.54-3.36-14-7.19-29.07-1.19-4.7-2.49-9.74-3.83-15-3.63-14.13-7.62-29.58-11.11-43-5.22-20.14-9.3-35.78-9.3-35.78h41.22s4.8,15.23,10.86,35.05c9.87,32.2,23,76.53,24.35,87.3,1.61,13.32-1,69-3.07,94.28A45.4,45.4,0,0,1,537.68,439.42Z" transform="translate(-48.21 -39.46)"/><path class="cls-4" d="M535.52,431.13c-7.43-.16-5.29-.22-12.72-.29-3.64,0-27.53-.24-30.93.32-.07,0-.07.14,0,.15,3.4.56,27.29.35,30.93.32,7.43-.07,5.29-.13,12.72-.29A.11.11,0,1,0,535.52,431.13Z" transform="translate(-48.21 -39.46)"/><path class="cls-4" d="M507.6,326c-1.6-7-4-13.92-6.05-20.82q-6.33-21-12.73-42.05-3.19-10.51-6.42-21c-1.08-3.53-2.17-7.07-3.28-10.59s-2.31-6.88-3.29-10.36c-.39-1.42-.61-.64-.1,1.16,1,3.63,2,7.26,3.09,10.88Q482,244,485.15,254.72q6.33,21.38,12.76,42.72,3.21,10.69,6.44,21.4A87.8,87.8,0,0,1,507,329.2a47.75,47.75,0,0,1,.43,11.08c-.47,7.44-6.83,65.09-8.16,79.9q-.25,2.82-.48,5.64c0,.63.4.7.47.1,1.6-14.64,7.44-64.17,8.81-78.76.34-3.67.73-7.34.73-11A46,46,0,0,0,507.6,326Z" transform="translate(-48.21 -39.46)"/><path class="cls-4" d="M503.56,210.13c-2.86,22.14-8.32,63.66-12.3,93.77C482,267.41,467,210.13,467,210.13Z" transform="translate(-48.21 -39.46)"/><path class="cls-20" d="M514.05,468.49c-2.42.76-71-.71-73.58-2.42-1-.64-1.35-10.65-1.45-22.74,0-2.62,0-5.3,0-8.05,0-3.25,2.26-34.83,2.26-34.83l44,.83-1.62,34.82-.38,8s26,12.31,28.63,14.49S516.45,467.75,514.05,468.49Z" transform="translate(-48.21 -39.46)"/><path class="cls-21" d="M514.05,468.5c-2.42.74-71-.73-73.59-2.43-1-.64-1.34-10.65-1.44-22.74,0-2.62,0-5.3,0-8.05,0-.59.08-2.11.2-4.21h44.66l-.24,5-.38,8s26,12.3,28.63,14.49S516.45,467.75,514.05,468.5Z" transform="translate(-48.21 -39.46)"/><path class="cls-9" d="M515.07,466.49v5.23a1,1,0,0,1-1,1h-.32a1,1,0,0,1-1-.78,3,3,0,0,0-5.73,0,1,1,0,0,1-1,.78h-1.5a1,1,0,0,1-1-.78,3,3,0,0,0-5.73,0,1,1,0,0,1-1,.78h-1.5a1,1,0,0,1-1-.78,3,3,0,0,0-5.74,0,1,1,0,0,1-1,.78h-1.5a1,1,0,0,1-1-.78,3,3,0,0,0-5.73,0,1,1,0,0,1-1,.78h-1.5a1,1,0,0,1-1-.78,3,3,0,0,0-5.74,0,1,1,0,0,1-1,.78h-1.5a1,1,0,0,1-1-.78,3,3,0,0,0-5.73,0,1,1,0,0,1-1,.78h-1.49a1,1,0,0,1-1-.78,3,3,0,0,0-5.74,0,1,1,0,0,1-1,.78h-1.49a1,1,0,0,1-1-.78,3,3,0,0,0-5.73,0,1,1,0,0,1-1,.78h-1.06a1,1,0,0,1-1-1v-5.23a1,1,0,0,1,1-1h73.2A1,1,0,0,1,515.07,466.49Z" transform="translate(-48.21 -39.46)"/><g class="cls-22"><path d="M515.07,466.49v5.23a1,1,0,0,1-1,1h-.32a1,1,0,0,1-1-.78,3,3,0,0,0-5.73,0,1,1,0,0,1-1,.78h-1.5a1,1,0,0,1-1-.78,3,3,0,0,0-5.73,0,1,1,0,0,1-1,.78h-1.5a1,1,0,0,1-1-.78,3,3,0,0,0-5.74,0,1,1,0,0,1-1,.78h-1.5a1,1,0,0,1-1-.78,3,3,0,0,0-5.73,0,1,1,0,0,1-1,.78h-1.5a1,1,0,0,1-1-.78,3,3,0,0,0-5.74,0,1,1,0,0,1-1,.78h-1.5a1,1,0,0,1-1-.78,3,3,0,0,0-5.73,0,1,1,0,0,1-1,.78h-1.49a1,1,0,0,1-1-.78,3,3,0,0,0-5.74,0,1,1,0,0,1-1,.78h-1.49a1,1,0,0,1-1-.78,3,3,0,0,0-5.73,0,1,1,0,0,1-1,.78h-1.06a1,1,0,0,1-1-1v-5.23a1,1,0,0,1,1-1h73.2A1,1,0,0,1,515.07,466.49Z" transform="translate(-48.21 -39.46)"/></g><path class="cls-9" d="M514.25,468.6c-1.57.48-30.79,0-52.05-.79-4.92-.19-9.42-.41-13-.64-5-.32-8.36-.65-8.9-1-1.19-.8-1.5-15.48-1.48-31l44.87.83-.38,8.08s26.15,12.38,28.79,14.57S516.67,467.84,514.25,468.6Z" transform="translate(-48.21 -39.46)"/><path class="cls-9" d="M514.25,468.6c-1.57.48-30.79,0-52.05-.79-4.92-.19-9.42-.41-13-.64-5-.32-8.36-.65-8.9-1-1.19-.8-1.5-15.48-1.48-31l44.87.83-.38,8.08s26.15,12.38,28.79,14.57S516.67,467.84,514.25,468.6Z" transform="translate(-48.21 -39.46)"/><path class="cls-23" d="M514.25,468.6c-1.57.48-30.79,0-52.05-.79-4.92-.19-9.42-.41-13-.64-5-.32-8.36-.65-8.9-1-1.19-.8-1.5-15.48-1.48-31l44.87.83-.38,8.08s26.15,12.38,28.79,14.57S516.67,467.84,514.25,468.6Z" transform="translate(-48.21 -39.46)"/><path class="cls-9" d="M513.32,465.82c-11.55-.53-58.21-1.58-69.67-1.23-.09,0-.09.07,0,.07,11.44.78,58.1,1.45,69.67,1.35C513.56,466,513.56,465.83,513.32,465.82Z" transform="translate(-48.21 -39.46)"/><path class="cls-9" d="M485,441.58c-4.53-.94-10.1-.36-13.65,2.8-.14.13,0,.32.19.28a63.87,63.87,0,0,1,13.43-2.5A.29.29,0,0,0,485,441.58Z" transform="translate(-48.21 -39.46)"/><path class="cls-9" d="M488.2,443.63c-4.53-.94-10.11-.37-13.66,2.8-.14.12,0,.32.19.27a64.47,64.47,0,0,1,13.44-2.49A.29.29,0,0,0,488.2,443.63Z" transform="translate(-48.21 -39.46)"/><path class="cls-9" d="M491.44,445.68c-4.53-.95-10.11-.37-13.66,2.8-.14.12,0,.32.19.27a64.47,64.47,0,0,1,13.44-2.49A.29.29,0,0,0,491.44,445.68Z" transform="translate(-48.21 -39.46)"/><path class="cls-9" d="M494.68,447.73c-4.53-1-10.11-.37-13.66,2.8-.13.12,0,.32.19.27a64.49,64.49,0,0,1,13.44-2.5A.29.29,0,0,0,494.68,447.73Z" transform="translate(-48.21 -39.46)"/><path class="cls-9" d="M493.58,431.24c-1.73-2.5-5.09-1.46-7,.09a24.32,24.32,0,0,0-7.23,10.27.12.12,0,0,0,.11.17.55.55,0,0,0,.7.58c3.78-1.31,8-2.24,11.26-4.67C493.31,436.26,495.22,433.61,493.58,431.24Zm-8.11,7.95c-1.85.69-3.71,1.29-5.54,2.05,1.42-2,2.74-4.05,4.36-5.91a24.79,24.79,0,0,1,2.47-2.55c1.37-1.21,6.79-3.71,5.88,1.26C492.14,436.78,487.67,438.37,485.47,439.19Z" transform="translate(-48.21 -39.46)"/><path class="cls-9" d="M467.8,440.17c3.71,1.68,8,1.69,12,2.16a.56.56,0,0,0,.56-.72.12.12,0,0,0,.07-.18,24.24,24.24,0,0,0-9.26-8.49c-2.22-1.11-5.72-1.41-6.88,1.41C463.2,437,465.63,439.19,467.8,440.17Zm-2-3.29c-1.95-4.66,3.88-3.37,5.48-2.49a26.23,26.23,0,0,1,3,2,72.11,72.11,0,0,1,5.51,4.83c-1.94-.35-3.89-.53-5.84-.81C471.59,440.05,466.89,439.45,465.81,436.88Z" transform="translate(-48.21 -39.46)"/><path class="cls-9" d="M506.91,210.13s-1,19.72-5.47,35.35c-.36,1.29-.75,2.56-1.18,3.78a73,73,0,0,0-11.88,6.1s-.47,15.87-.95,33.57c-.53,19.79-1.07,41.86-1,46.54.31,13.22,1.09,66,.64,91.1a51,51,0,0,1-1.92,13.57l-48.63.19s-1.67-5-.89-14.82c2.24-28.29,8.75-85.23,8.71-90-.09-10.31,2.35-55.89,4.24-89.12.36-6.26.09-12.11.67-17.17a115.73,115.73,0,0,1,3.7-19.1Z" transform="translate(-48.21 -39.46)"/><path class="cls-4" d="M483.53,431.49c-7.43-.13-5.3-.2-12.73-.24-3.63,0-27.53-.12-30.92.45a.08.08,0,0,0,0,.16c3.4.54,27.29.23,30.92.18,7.43-.1,5.3-.15,12.73-.34A.11.11,0,1,0,483.53,431.49Z" transform="translate(-48.21 -39.46)"/><path class="cls-4" d="M458.08,210.78c-1.56,5.44-3.89,16.48-4,21-.06,1.82,0,3.88-.1,5.7q-1,31-2.36,62c-1.18,27-6.54,114.75-8.15,129.79a.08.08,0,0,0,.16,0c3.47-26.74,4.5-57.25,6.21-84.16s2.86-53.87,3.76-80.81q.44-13.42.8-26.85c.05-1.81.09-3.62.16-5.43.19-5.27,2.82-15.72,3.89-21.21C458.45,210.54,458.14,210.57,458.08,210.78Z" transform="translate(-48.21 -39.46)"/><path class="cls-4" d="M500.84,249.26a84.18,84.18,0,0,0-13.13,6.12.15.15,0,0,0,.12.27c4.43-1.9,8.94-3.72,13.25-5.86A.29.29,0,0,0,500.84,249.26Z" transform="translate(-48.21 -39.46)"/><path class="cls-4" d="M502.38,221.2c0-.14-.28-.17-.28,0a124.63,124.63,0,0,1-.81,13.62c-.21,2.1-2.1,13.71-6.05,12.88-.66-.13-1-.73-1.09-1.65a13.31,13.31,0,0,1,.54-3.56c.45-2.43.81-4.87,1.05-7.33a61.11,61.11,0,0,0-.09-13.72c0-.15-.26-.14-.26,0a115.84,115.84,0,0,1-1.29,19c-.51,3-2.18,7.57,1.24,8s5.78-7.17,6.22-9.25A64.41,64.41,0,0,0,502.38,221.2Z" transform="translate(-48.21 -39.46)"/><path class="cls-4" d="M495.34,248a22.9,22.9,0,0,0-.89,2.61,6.12,6.12,0,0,0-.37,2.15.16.16,0,0,0,.28.05,7.62,7.62,0,0,0,.92-2.08c.3-.81.61-1.61.89-2.43A.44.44,0,0,0,495.34,248Z" transform="translate(-48.21 -39.46)"/><path class="cls-4" d="M461.21,235.46c2-.31,9.61-2.41,11.34-4.21,2.93-3.07,5-9.69,5.42-12.18,0-.12.16-.08.16,0,.07,2.79-1.77,10.31-4.93,13.59-1.77,1.84-9.84,3.19-12,3C461.07,235.73,461.07,235.48,461.21,235.46Z" transform="translate(-48.21 -39.46)"/><path class="cls-4" d="M513.23,234.64c-.85-.29-3.71-1.8-4.46-3.51a54.86,54.86,0,0,1-2.83-12.06c0-.12-.06-.08-.07,0,0,2.65.77,9.8,2.15,12.92.77,1.75,4.28,3,5.21,2.88C513.29,234.9,513.29,234.66,513.23,234.64Z" transform="translate(-48.21 -39.46)"/><path class="cls-6" d="M509.08,212.79l-2.36.24-3.58.34-34.4,3.36h0l-11.84,1.16-.59.06-5.32.52c1-5.24,2-8.34,2-8.34h55.25S508.54,211.07,509.08,212.79Z" transform="translate(-48.21 -39.46)"/><path class="cls-20" d="M496.35,158.94c3.67,11,20.06,46.1,27,48.55,7.17,2.55,34.88,5.72,41,.88,3-2.38,4-27.72,0-27.12s-28.49,1.53-31.4.49-22.32-29.3-30.2-36.15C489.15,133.79,494.37,153,496.35,158.94Z" transform="translate(-48.21 -39.46)"/><path class="cls-9" d="M558.19,180.83l-.4,31.58s-28.41.08-36-3.9S498.22,168,494.22,154.05s2.4-16.13,12.57-5.88,25.48,31.73,27.3,32.18S558.19,180.83,558.19,180.83Z" transform="translate(-48.21 -39.46)"/><path class="cls-4" d="M549.91,196.42c0-2.5.18-12.51.41-15,0,0,.07-.05.07,0,.25,2.41.38,12.29.36,14.8a136.29,136.29,0,0,1-.56,15c0,.09-.15.11-.16,0C549.66,206.3,549.86,201.35,549.91,196.42Z" transform="translate(-48.21 -39.46)"/><path class="cls-14" d="M494.21,154.05c4,14,20,50.47,27.59,54.45,3.63,1.91,12.05,2.89,19.83,3.39L497,141.81C493.21,141.38,491.77,145.52,494.21,154.05Z" transform="translate(-48.21 -39.46)"/><path class="cls-9" d="M508.24,210.13H453a8.71,8.71,0,0,1-.51-7.5c5.45-15.52,21.56-50.94,29.24-58.84s16.93-3.14,18.83-.62c5.69,7.58,9.72,46.44,10.1,61.39A7,7,0,0,1,508.24,210.13Z" transform="translate(-48.21 -39.46)"/><path class="cls-20" d="M497.23,152.27c-3.25-.21-8.47-5.72-9.3-10.71-.05-.35,1.45-3.22,3.1-6.8,1-2.18,2.05-4.62,2.86-6.93.16-.47,13.21,8.55,13.21,8.55a39,39,0,0,0-4.48,8.36,5.14,5.14,0,0,0-.23,1s0,.1,0,.16C502,147.78,500.71,152.5,497.23,152.27Z" transform="translate(-48.21 -39.46)"/><path class="cls-4" d="M502.4,145.72a1.56,1.56,0,0,0,0,.16,10.3,10.3,0,0,1-1.5-.44c-8.43-3.16-7-14.58-6.45-17.42,2.44,1.26,12.7,8.36,12.7,8.36a39.26,39.26,0,0,0-4.48,8.36A4.57,4.57,0,0,0,502.4,145.72Z" transform="translate(-48.21 -39.46)"/><path class="cls-20" d="M497.87,110.27c-3.22,4.67-5.23,20.47-2.61,25,3.79,6.51,12.37,9.75,18.51,4.64,5.94-4.94,8.2-25.57,5.06-29.9C514.2,103.6,502.63,103.38,497.87,110.27Z" transform="translate(-48.21 -39.46)"/><path class="cls-4" d="M520.18,120c-.33-2-.57-5.64-1.55-7.08s-1.36,2-3.86,2.31-3.6-4.23-5.7-5.51-6.33,1.36-7.15,4.62-1.64,7.81-2.69,10-5.57,2.76-5.57,2.76-.81-15,5.72-20.24,17.66-1.48,19.77,2.63S520.18,120,520.18,120Z" transform="translate(-48.21 -39.46)"/><path class="cls-4" d="M509.6,123.84s-.09,0-.1.08c-.1,1.07-.41,2.28-1.42,2.5a0,0,0,0,0,0,.06C509.28,126.47,509.67,124.87,509.6,123.84Z" transform="translate(-48.21 -39.46)"/><path class="cls-4" d="M508.79,122.6c-1.69-.35-2.28,3.06-.71,3.39S510.21,122.9,508.79,122.6Z" transform="translate(-48.21 -39.46)"/><path class="cls-4" d="M515.69,125.07s.07.06.06.11c-.21,1-.28,2.29.61,2.8,0,0,0,.07,0,.06C515.2,127.67,515.31,126,515.69,125.07Z" transform="translate(-48.21 -39.46)"/><path class="cls-4" d="M516.82,124.13c1.72.16,1.27,3.59-.33,3.44S515.38,124,516.82,124.13Z" transform="translate(-48.21 -39.46)"/><path class="cls-4" d="M507.72,120.81a13.66,13.66,0,0,0,1.4-.24,2.27,2.27,0,0,0,1.38-.51.74.74,0,0,0,0-.89,1.8,1.8,0,0,0-1.77-.5,2.62,2.62,0,0,0-1.71.88A.77.77,0,0,0,507.72,120.81Z" transform="translate(-48.21 -39.46)"/><path class="cls-4" d="M518.44,122.64c-.46-.16-.86-.39-1.3-.59a2.32,2.32,0,0,1-1.21-.85.74.74,0,0,1,.2-.87,1.81,1.81,0,0,1,1.84,0,2.67,2.67,0,0,1,1.43,1.28A.78.78,0,0,1,518.44,122.64Z" transform="translate(-48.21 -39.46)"/><path class="cls-4" d="M506.93,133.48c.21.29.4.68.78.78a3,3,0,0,0,1.18-.07s.07,0,0,.06a1.44,1.44,0,0,1-1.44.34,1.14,1.14,0,0,1-.67-1.08C506.81,133.45,506.9,133.44,506.93,133.48Z" transform="translate(-48.21 -39.46)"/><path class="cls-4" d="M508.58,130.51a3.65,3.65,0,0,0,2.13,2,4.74,4.74,0,0,0,1.29.29h.49a.28.28,0,0,0,.25-.2h0a.41.41,0,0,0,0-.11h0v-.09c.17-.81.3-2.06.3-2.06.27.2,1.67,1.14,1.72.71a54.44,54.44,0,0,0,.48-11.13.1.1,0,0,0-.2,0c-.51,3.4-.43,6.87-.89,10.3a6.4,6.4,0,0,0-1.61-.81c-.12,0-.22,2.42-.32,2.78a.1.1,0,0,1,0,0,5.05,5.05,0,0,1-3.53-1.8C508.63,130.36,508.54,130.41,508.58,130.51Z" transform="translate(-48.21 -39.46)"/><path class="cls-24" d="M496.81,119.91s5.41-5.52,8.78-6.93c2.15-.89,8.52-.44,10.62,0,1.48.32,4.26,1.25,4.26,1.25a10.75,10.75,0,0,0,1.3-.95,4.81,4.81,0,0,0,1.72-4.25c-.33-2.74-3.64-3.85-5-5.37s-5.29-4.87-8.31-4.9c-4.46,0-7.54,2.1-8.71,2.39-4.08,1-7.74,2.43-9.6,5.64-2.16,3.75-1.91,6.87-2.61,8.42-1.28,2.85-1,6.2.82,8a9.22,9.22,0,0,0,3.39,2.24Z" transform="translate(-48.21 -39.46)"/><path class="cls-4" d="M520.81,113.42a11.07,11.07,0,0,0-1.08-.89,2.48,2.48,0,0,0,1.29-1.1,11.26,11.26,0,0,0,.83-2.41c0-.1-.13-.14-.15,0a5.87,5.87,0,0,1-.92,2.15,4.27,4.27,0,0,1-1.31,1.23,8,8,0,0,0-1-.53l.22-.19a2.69,2.69,0,0,0,.44-.51,3.14,3.14,0,0,0,.5-1.21c0-.1-.14-.1-.15,0a2.63,2.63,0,0,1-.46,1.15,3,3,0,0,1-.41.46,2.15,2.15,0,0,1-.24.18.18.18,0,0,1-.07,0l-.26-.12a23.49,23.49,0,0,0-3.51-1c-.3-.07-.61-.12-.91-.18a2.19,2.19,0,0,0,.34-.34,3.87,3.87,0,0,0,.64-1.71s0,0,0,0a3.42,3.42,0,0,1-.75,1.65,1.16,1.16,0,0,1-.63.32l-.72-.11a2,2,0,0,1-.76-1.24,3.57,3.57,0,0,1,0-1.75c0-.09-.12-.14-.14,0a4.87,4.87,0,0,0-.17,1.52,3.19,3.19,0,0,0,.32,1.4,16.41,16.41,0,0,0-3.5-.09,10.14,10.14,0,0,0-2.57.58,5.2,5.2,0,0,1-1.13-.73,2.8,2.8,0,0,1-.87-1.34c0-.09-.17-.06-.14,0a3.46,3.46,0,0,0,1.77,2.17,14,14,0,0,0-2.4,1.24l-.21-.13a3.41,3.41,0,0,1-.48-.37,3.71,3.71,0,0,1-.78-1,6.65,6.65,0,0,1-.61-2.6c0-.08-.16-.07-.15,0a9.88,9.88,0,0,0,.5,2.81,3.08,3.08,0,0,0,.74,1.14,2.62,2.62,0,0,0,.55.39h0l-.19.13-.47.33a1.57,1.57,0,0,1-1.06-.21,2.69,2.69,0,0,1-1.05-1.75c0-.1-.18-.05-.14,0a3.65,3.65,0,0,0,1.11,2,1.66,1.66,0,0,0,.65.25,34.42,34.42,0,0,0-3.65,2.93l-.06-.25a3.38,3.38,0,0,0-.3-.74,2.88,2.88,0,0,0-.43-.66,6,6,0,0,0-.51-.62c-.06-.08-.17,0-.11.09a3.56,3.56,0,0,1,.43.66c.11.23.2.46.3.69s.16.47.23.71.06.25.1.37l0,.07c-.24.23-.48.46-.7.7s-.37.42-.55.64a2.29,2.29,0,0,1-.28-.09,5.17,5.17,0,0,1-.59-.23,7,7,0,0,1-1.13-.65,8.43,8.43,0,0,1-1-.81,3,3,0,0,1-.73-1.17c0-.09-.17-.06-.14,0a5.33,5.33,0,0,0,1.43,2.39,3.92,3.92,0,0,0,1.24.71,3.61,3.61,0,0,0,.86.21,17.59,17.59,0,0,0-1.47,2.17,19.67,19.67,0,0,0-1.43,3.86c0,.09.12.14.14.05a10.14,10.14,0,0,1,1.53-3.24,18.07,18.07,0,0,1,2.11-2.73,37.77,37.77,0,0,1,5.1-4.43,13.86,13.86,0,0,1,5.7-2.9,16.69,16.69,0,0,1,6.14.22,17.78,17.78,0,0,1,7.06,2.5C520.78,113.6,520.88,113.48,520.81,113.42Z" transform="translate(-48.21 -39.46)"/><path class="cls-20" d="M497.73,123.81s-2-5.86-4.52-5.3-2.09,8.35.21,10.08a2.74,2.74,0,0,0,3.94-.37Z" transform="translate(-48.21 -39.46)"/><path class="cls-4" d="M493.4,120.74s-.07,0,0,.06c1.6,1.28,2.06,3.24,2.21,5.18a1.52,1.52,0,0,0-2.06-1c-.05,0,0,.11,0,.12a1.67,1.67,0,0,1,1.61,1.09,8.06,8.06,0,0,1,.43,1.69c0,.19.35.19.35,0v0C496.65,125.48,495.81,121.71,493.4,120.74Z" transform="translate(-48.21 -39.46)"/><path class="cls-7" d="M501.15,158.4s-3.33-5.16.37-7.14,6.15,3.64,6.15,3.64Z" transform="translate(-48.21 -39.46)"/><path class="cls-7" d="M527.92,192.72h0l.06,6,0,2-1.65-1.11-5-3.38h0l-20.36-38,6.53-3.49,20.36,38Z" transform="translate(-48.21 -39.46)"/><polygon class="cls-5" points="479.77 159.27 479.79 161.25 478.14 160.14 479.77 159.27"/><rect class="cls-5" x="500.27" y="156.13" width="8.64" height="1.71" transform="translate(-62.57 217.31) rotate(-28.17)"/><rect class="cls-5" x="501.16" y="157.8" width="8.64" height="1.71" transform="translate(-63.25 217.93) rotate(-28.17)"/><polygon class="cls-5" points="453.86 121.99 456.32 120.68 462.33 135.16 461.4 135.59 453.86 121.99"/><path class="cls-20" d="M474.73,147.75c-18.43,19.23-39.52,51.95-31.1,59.3,7.69,6.71,29.31,2.54,47.59-4,3.48-1.25-1-31.41-4.52-29.69a77,77,0,0,1-14.38,4.83c-1,.24,3.3-3.26,9.8-19C488.73,143.08,485.27,136.76,474.73,147.75Z" transform="translate(-48.21 -39.46)"/><path class="cls-20" d="M528.78,174.23c-.26,3.44-8.68,2.08-8.68,2.08a6.33,6.33,0,0,1,2.3,3.66c.43,2.59-3.43,4.4-3.43,4.4a7.86,7.86,0,0,1,1.81,4.26c.17,2.51-3.47,4.9-3.47,4.9a6.89,6.89,0,0,1-.76,4.74c-2.34,3.76-9.12,3.29-13.38,3.83-4.56.58-11.53.8-14.33,1.76l-4.79-29.35s18.79-10,23.85-9.32C512.15,165.74,529.18,169,528.78,174.23Z" transform="translate(-48.21 -39.46)"/><path class="cls-4" d="M520,176.2c-4.38-1.67-9.16-2.28-13.78-2.83a.08.08,0,0,0,0,.16c4.59.49,9.17,2.22,13.74,2.89A.11.11,0,0,0,520,176.2Z" transform="translate(-48.21 -39.46)"/><path class="cls-4" d="M518.87,184a12.49,12.49,0,0,0-3.17-.43c-1.13-.08-2.26-.13-3.39-.17-2.27-.08-4.54-.11-6.81-.07-.1,0-.13.16,0,.16,2.26.08,4.52.2,6.78.38,1.12.09,2.25.18,3.38.29a14.31,14.31,0,0,0,3.2.15A.16.16,0,0,0,518.87,184Z" transform="translate(-48.21 -39.46)"/><path class="cls-4" d="M517.21,193.52a8.89,8.89,0,0,0-2.87-.24c-1,0-2.07,0-3.1-.06-2.07-.05-4.14-.1-6.21-.22a.08.08,0,0,0,0,.16c2.1.13,4.19.3,6.29.41,1,.06,2.06.12,3.09.16a8.08,8.08,0,0,0,2.82-.1A.06.06,0,0,0,517.21,193.52Z" transform="translate(-48.21 -39.46)"/><path class="cls-9" d="M482.42,172.08l5.93,34.39s-43.13,10-47.26-1,22.16-50.47,37-61.54,6.11,11.73,5.63,13.16c-2.14,6.37-9,18-9,18Z" transform="translate(-48.21 -39.46)"/><path class="cls-4" d="M481.68,172.09c-5,1.59-18,7.65-20.93,10.21-.09.08,0,.21.09.15,2.84-1.88,19-9.23,21.5-10.11a3.63,3.63,0,0,0,.16.39c.08.12.15.05.15-.06a7,7,0,0,0-.16-.84Z" transform="translate(-48.21 -39.46)"/><path class="cls-4" d="M477.48,191.12c-.4-2.4-1.91-12-2.11-14.43a0,0,0,0,1,.07,0c.64,2.27,2.41,11.7,2.82,14.11a132.71,132.71,0,0,1,2,14.45c0,.08-.13.12-.15,0C478.9,200.62,478.26,195.85,477.48,191.12Z" transform="translate(-48.21 -39.46)"/><path class="cls-4" d="M474.4,175.29c1.43-2.87,3.14-5.6,4.69-8.4s3.16-5.58,4.61-8.42c0,0,.09,0,.07,0-.89,1.95-1.78,3.88-2.72,5.79.28-.3.54-.61.8-.92.47-.57.9-1.17,1.33-1.77a0,0,0,0,1,.06,0,10.34,10.34,0,0,1-1.24,1.9,13.6,13.6,0,0,1-1.18,1.22c-.39.78-.79,1.55-1.21,2.32-1.54,2.84-2.75,5.66-4.71,8.23C474.84,175.4,474.36,175.38,474.4,175.29Z" transform="translate(-48.21 -39.46)"/><path class="cls-4" d="M447.45,209.69c11.48,1.53,36-2.35,40.73-3.18-.05-.5,0-.68-.09-1.39,0-.09.14-.13.16,0,.11.67.52,2,.33,2.09-2.29.83-29.15,5.33-41.14,2.72C447.3,209.87,447.31,209.67,447.45,209.69Z" transform="translate(-48.21 -39.46)"/><rect class="cls-9" x="509.38" y="170.33" width="54.11" height="41.57" transform="translate(193.45 638.89) rotate(-78.44)"/><rect class="cls-25" x="509.38" y="170.33" width="54.11" height="41.57" transform="translate(193.45 638.89) rotate(-78.44)"/><rect class="cls-9" x="511.12" y="170.69" width="54.11" height="41.57" transform="translate(194.49 640.88) rotate(-78.44)"/><rect class="cls-26" x="511.12" y="170.69" width="54.11" height="41.57" transform="translate(194.49 640.88) rotate(-78.44)"/><rect class="cls-2" x="533.54" y="162.15" width="19.7" height="5.97" transform="translate(994.73 395.82) rotate(-168.5)"/><polygon class="cls-2" points="490.5 121.68 492.88 122.16 493.43 119.46 499.2 120.64 498.65 123.34 501.03 123.82 502.03 118.91 491.46 116.76 490.5 121.68"/><path class="cls-20" d="M565.14,178.05c1.42,4,5.49,9.18,5.55,12.33A3.62,3.62,0,0,1,568.3,194s3,1.86,2.53,4.73c-.21,1.47-2.76,2.42-2.76,2.42a4.31,4.31,0,0,1,1.77,4.12c-.43,2-2.91,2.67-2.91,2.67s1.49,2.55.4,4.46c-2.21,3.88-19.76,2.09-21.81-4.65-1-3.14,3.3-2.47,3.3-2.47s-5.9-2.44-5.62-6.07,5.76-2.43,5.76-2.43-5.69-2.41-5-6.14c.69-3.89,6-1.75,6-1.75s-3.64-3-2.47-5.78c1.92-4.53,8.71,2.1,12.66,1.58l2.78-6.15Z" transform="translate(-48.21 -39.46)"/><path class="cls-20" d="M568.1,183.94c-1-3.9,4.1-8.06,3.67-11.93-.59-5.22-6.86-.8-8.89,6.5l-.59,6Z" transform="translate(-48.21 -39.46)"/><path class="cls-4" d="M566.55,208.07a0,0,0,0,1,0,.09,30.66,30.66,0,0,1-18-2.92c-.17-.09-.09-.41.12-.35A62.61,62.61,0,0,0,566.55,208.07Z" transform="translate(-48.21 -39.46)"/><path class="cls-4" d="M568.15,201.17c.07,0,.07.11,0,.12a28.65,28.65,0,0,1-19.41-4.4c-.2-.13-.24-.45,0-.31C552.75,198.93,562.45,201.08,568.15,201.17Z" transform="translate(-48.21 -39.46)"/><path class="cls-4" d="M549.58,188.44c5.64,3.6,11.87,5,18.48,5.58.08,0,.06.12,0,.14-3.31.61-7.48-.18-10.68-1.07a17.69,17.69,0,0,1-7.92-4.45C549.37,188.55,549.46,188.36,549.58,188.44Z" transform="translate(-48.21 -39.46)"/></g><g id="Milk_Cans" data-name="Milk Cans"><path class="cls-4" d="M100.66,359.1H54.82V347c0-14.42,9-23.74,22.93-23.74s22.91,9.32,22.91,23.74Zm-44.37-1.47h42.9V347c0-13.53-8.42-22.27-21.44-22.27S56.29,333.5,56.29,347Z" transform="translate(-48.21 -39.46)"/><path class="cls-9" d="M90,331a19,19,0,0,0-12.24-4,18.93,18.93,0,0,0-12.24,4l-3.7-4.58a25,25,0,0,1,15.94-5.3,25,25,0,0,1,15.93,5.3Z" transform="translate(-48.21 -39.46)"/><rect class="cls-7" y="344.68" width="59.05" height="88.52"/><polygon class="cls-5" points="45.81 327.52 13.25 327.52 0 344.68 59.05 344.68 45.81 327.52"/><rect class="cls-7" x="13.25" y="314.26" width="32.56" height="13.26"/><polygon class="cls-5" points="45.81 314.26 13.25 314.26 13.25 316.58 45.81 318.9 45.81 314.26"/><rect class="cls-7" x="10.48" y="307.57" width="38.09" height="6.69"/><polygon class="cls-5" points="3.87 326.78 9.67 332.15 5.1 338.07 0.89 329.35 3.87 326.78"/><polygon class="cls-5" points="55.18 326.78 49.38 332.15 53.95 338.07 58.16 329.35 55.18 326.78"/><g class="cls-27"><rect class="cls-8" x="83.28" y="384.14" width="18.26" height="88.52" transform="translate(136.61 817.35) rotate(180)"/><rect class="cls-8" x="77.15" y="384.14" width="2.59" height="88.52" transform="translate(108.67 817.35) rotate(180)"/></g><rect class="cls-7" x="62.52" y="344.68" width="59.05" height="88.52"/><polygon class="cls-5" points="108.33 327.52 75.77 327.52 62.52 344.68 121.58 344.68 108.33 327.52"/><rect class="cls-7" x="75.77" y="314.26" width="32.56" height="13.26"/><polygon class="cls-5" points="108.33 314.26 75.77 314.26 75.77 316.58 108.33 318.9 108.33 314.26"/><rect class="cls-7" x="73" y="307.57" width="38.09" height="6.69"/><polygon class="cls-5" points="66.39 326.78 72.2 332.15 67.63 338.07 63.42 329.35 66.39 326.78"/><polygon class="cls-5" points="117.71 326.78 111.91 332.15 116.48 338.07 120.69 329.35 117.71 326.78"/><g class="cls-27"><rect class="cls-8" x="146.25" y="384.14" width="18.26" height="88.52" transform="translate(262.55 817.35) rotate(180)"/><rect class="cls-8" x="140.12" y="384.14" width="2.59" height="88.52" transform="translate(234.61 817.35) rotate(180)"/></g><path class="cls-4" d="M156.54,357.63v1.47h5.17v10.59c0,7.83-2.81,14.06-7.73,17.91a23.72,23.72,0,0,1-27.44,0c-4.91-3.85-7.73-10.08-7.73-17.91V359.1H124v-1.47h-6.64v12.06c0,8.35,3,15,8.25,19.09a25.42,25.42,0,0,0,29.34,0c5.25-4.1,8.25-10.74,8.25-19.09V357.63Z" transform="translate(-48.21 -39.46)"/><path class="cls-9" d="M156.19,390.35a26.61,26.61,0,0,1-31.87,0l1.27-1.57,1-1.18,1.48-1.84a20.71,20.71,0,0,0,24.47,0L154,387.6l1,1.18Z" transform="translate(-48.21 -39.46)"/><rect class="cls-7" x="220.01" y="344.68" width="59.05" height="88.52"/><polygon class="cls-5" points="265.81 327.52 233.25 327.52 220.01 344.68 279.06 344.68 265.81 327.52"/><rect class="cls-7" x="233.25" y="314.26" width="32.56" height="13.26"/><polygon class="cls-5" points="265.81 314.26 233.25 314.26 233.25 316.58 265.81 318.9 265.81 314.26"/><rect class="cls-7" x="230.49" y="307.57" width="38.09" height="6.69"/><polygon class="cls-5" points="223.88 326.78 229.68 332.15 225.11 338.07 220.9 329.35 223.88 326.78"/><polygon class="cls-5" points="275.19 326.78 269.39 332.15 273.96 338.07 278.17 329.35 275.19 326.78"/><g class="cls-27"><rect class="cls-8" x="303.74" y="384.14" width="18.26" height="88.52" transform="translate(577.52 817.35) rotate(180)"/><rect class="cls-8" x="297.6" y="384.14" width="2.59" height="88.52" transform="translate(549.57 817.35) rotate(180)"/></g><path class="cls-4" d="M314,357.63v1.47h5.17v10.59c0,7.83-2.82,14.06-7.74,17.91a23.72,23.72,0,0,1-27.44,0c-4.91-3.85-7.72-10.08-7.72-17.91V359.1h5.17v-1.47h-6.64v12.06c0,8.35,3,15,8.24,19.09a25.42,25.42,0,0,0,29.34,0c5.25-4.1,8.26-10.74,8.26-19.09V357.63Z" transform="translate(-48.21 -39.46)"/><path class="cls-9" d="M313.68,390.35a26.61,26.61,0,0,1-31.87,0l1.26-1.57.95-1.18,1.48-1.84a20.73,20.73,0,0,0,24.48,0l1.48,1.84,1,1.18Z" transform="translate(-48.21 -39.46)"/></g><g id="Speech_Bubble" data-name="Speech Bubble"><path class="cls-8" d="M580.49,87.68a25.08,25.08,0,0,1-40,20.14L528.17,111l5.12-11.45a25.08,25.08,0,1,1,47.2-11.83Z" transform="translate(-48.21 -39.46)"/><path class="cls-4" d="M580.49,87.68c-.12,21.22-24.33,32.36-39.94,20.48l-12.27,3.22-.88.23.37-.83,5.08-11.46v.42c-5.77-10.27-3-24.15,6.16-31.52,16.49-13.59,41.41-1.9,41.47,19.46Zm0,0c.08-16-15.61-28.28-31.12-24a24.78,24.78,0,0,0-15.66,35.64l.11.22-.09.21-5.16,11.42-.51-.6,12.31-3.06c16.78,12.12,39.7,1.15,40.12-19.79Z" transform="translate(-48.21 -39.46)"/><polygon class="cls-9" points="503.13 63.15 491.88 51.77 495.66 48.04 502.23 54.68 515.87 33.3 520.35 36.15 503.13 63.15"/></g></svg>